<?xml version="1.0" encoding="utf-8"?>
<!-- Generator: Adobe Illustrator 15.1.0, SVG Export Plug-In . SVG Version: 6.00 Build 0)  -->
<!DOCTYPE svg PUBLIC "-//W3C//DTD SVG 1.1//EN" "http://www.w3.org/Graphics/SVG/1.1/DTD/svg11.dtd">
<svg version="1.1" id="Layer_1" xmlns="http://www.w3.org/2000/svg" xmlns:xlink="http://www.w3.org/1999/xlink" x="0px" y="0px"
	 width="17.5px" height="15px" viewBox="0 0 17.5 15" enable-background="new 0 0 17.5 15" xml:space="preserve">
<g>
	<path fill="#85A640" d="M13.613,13.402c-1,0.607-2.189,0.957-3.484,0.957c-3.649,0-6.572-2.92-6.572-6.571
		c0-0.46,0.048-0.896,0.141-1.323v-0.55H3.391c-0.175,0.63-0.289,1.286-0.289,1.966c0,3.924,3.194,7.119,7.121,7.119
		c1.436,0,2.787-0.436,3.924-1.18c-0.096-0.053-0.193-0.094-0.277-0.166L13.613,13.402z"/>
	<path fill="#85A640" d="M16.883,5.232l-0.09-0.091c-0.363-0.73-0.82-1.46-1.369-2.099l-0.092-0.091
		c-0.09-0.091-0.182-0.181-0.361-0.274c-1.281-1.185-2.924-1.826-4.84-1.826c-1.489,0-2.904,0.505-4.073,1.329v1.54h0.03
		c0.31-0.325,0.647-0.624,1.032-0.862V2.77L6.846,2.677L6.662,2.585H6.389c1.094-0.821,2.374-1.278,3.833-1.278
		c1.643,0,3.193,0.639,4.291,1.643L14.42,3.134l-0.273,0.091l-0.096,0.181V3.59h0.186l0.092,0.273l0.273-0.182v0.271H14.51h-0.184
		h-0.275l-0.09,0.124c0.16,0.201,0.305,0.41,0.434,0.632l0.023-0.025v0.004L14.396,4.71c0.008,0.013,0.016,0.028,0.021,0.042v0.003
		c0.031,0.058,0.062,0.115,0.096,0.173l0.457,0.302h-0.004l-0.453-0.3c0.067,0.131,0.146,0.256,0.204,0.394l0,0
		c0.015,0.029,0.019,0.062,0.027,0.09h0.129l0.185-0.091V5.141h0.09l-0.09-0.09l-0.363-0.092l-0.094-0.273h0.002l0.092,0.273
		l0.365,0.092l0.09,0.091h-0.09v0.183l-0.185,0.091h-0.129c0.067,0.168,0.114,0.345,0.162,0.521h-0.002
		c0.122,0.447,0.211,0.909,0.211,1.395c0,0.622-0.125,1.248-0.377,1.896l0.315,0.566l-0.211,0.211l1.231,1.232
		c0.103,0.102,0.162,0.223,0.231,0.34c0.103-0.166,0.211-0.328,0.299-0.504c0.271-0.457,0.457-1.008,0.547-1.555
		c0-0.184,0.093-0.271,0.093-0.457c0.092-0.363,0.092-0.729,0.092-1.275c0-0.184,0-0.457,0-0.64
		C17.25,6.51,17.158,5.78,16.883,5.232z M16.156,5.232h-0.002c0.002-0.09-0.088-0.179-0.18-0.271V4.959
		C16.064,5.051,16.156,5.141,16.156,5.232z M16.336,5.506c0,0,0,0.001,0,0.002h-0.363l-0.182-0.183V5.324l0.182,0.182H16.336z
		 M15.516,5.507l0.09-0.366L15.79,5.05v0.002l-0.183,0.09l-0.09,0.366L15.516,5.507l-0.271-0.273V5.232L15.516,5.507z M15.104,6.008
		l0.045,0.044l0,0L15.104,6.008z"/>
	<path fill="#85A640" d="M7.117,2.677h0.335C7.567,2.619,7.67,2.545,7.789,2.494H7.757L7.575,2.22H7.209L6.845,2.494H7.21v0.091
		L7.117,2.677z"/>
	<path fill="#85A640" d="M9.4,12.631l0.125-0.066c-0.4-0.023-0.785-0.094-1.157-0.209l0.119,0.182v0.547l0.274,0.551l0.364,0.363
		H9.49v-0.096l-0.274-0.27v-0.094l0.093-0.182v-0.184H9.126v-0.182l0.185-0.186v-0.092H9.126v-0.088H9.4V12.631z"/>
	<path fill="#85A640" d="M14.424,13.625c0.504,0.203,1.135,0.113,1.535-0.283c0.352-0.412,0.408-0.994,0.184-1.475
		C15.678,12.553,15.088,13.141,14.424,13.625z"/>
	<path fill="#85A640" d="M6.055,7.423c0-0.095,0.021-0.184,0.028-0.277l0,0C6.096,6.98,6.101,6.814,6.134,6.654
		c0.047-0.23,0.135-0.444,0.223-0.658H5.975v1.427H6.055z"/>
	<path fill="#85A640" d="M13.871,13.229l0.201,0.205c0.102,0.088,0.227,0.143,0.35,0.191c0.666-0.484,1.254-1.072,1.721-1.758
		c-0.066-0.148-0.156-0.289-0.275-0.41l-1.234-1.234l-0.225-0.227c-0.025-0.023-0.039-0.043-0.057-0.053
		c0.004,0.004-0.006,0.004-0.02,0.004h-0.248l0.109-0.219c0.225-0.447,0.381-0.879,0.486-1.303c0.088-0.367,0.137-0.732,0.137-1.094
		c0-0.509-0.1-0.989-0.242-1.452c-0.021-0.069-0.037-0.138-0.062-0.205c-0.02-0.053-0.029-0.111-0.053-0.163h0.002
		c-0.09-0.227-0.205-0.437-0.326-0.646l0,0c-0.111-0.191-0.23-0.372-0.363-0.544L13.418,4.41l-0.094,0.274l0.09-0.274l0.357-0.088
		c-0.896-1.161-2.279-1.922-3.85-1.944c-0.023,0-0.044-0.006-0.064-0.006c-0.229,0-0.439,0.039-0.656,0.067L9.035,2.494l0.167-0.055
		c-0.087,0.012-0.176,0.01-0.261,0.025L8.939,2.466C8.79,2.495,8.647,2.542,8.501,2.585H8.5C8.406,2.613,8.311,2.641,8.218,2.673
		L8.207,2.677C8.119,2.707,8.025,2.725,7.941,2.76v0.099h0.364V2.86H7.939v-0.1c-0.548,0.231-1.043,0.559-1.47,0.962h1.419
		L7.849,3.681L7.888,3.72h1.055l0.015,0.004l0.168-0.043v0.001L8.958,3.724c0.023,0,0.039,0.012,0.062,0.013
		C9.291,3.67,9.566,3.62,9.857,3.62c0.166,0,0.322,0.029,0.48,0.048l0,0c0.986,0.129,1.85,0.627,2.447,1.361l0.08-0.161l0.273-0.092
		l0,0l-0.271,0.092l-0.082,0.161c0.125,0.151,0.236,0.31,0.336,0.479h0.002c0.035,0.058,0.066,0.121,0.1,0.181
		c0.27,0.522,0.438,1.107,0.438,1.735c0,0.325-0.053,0.626-0.127,0.914c-0.16,0.637-0.457,1.172-0.723,1.547l-0.057,0.047
		c-0.145,0.072-0.213,0.135-0.277,0.268v0.133l-0.066,0.045c-0.672,0.479-1.4,0.721-2.213,0.748l-0.002,0.002
		c-0.055,0.002-0.104,0.014-0.154,0.014c-0.055,0.002-0.114,0.006-0.174,0.006c-0.637,0-1.222-0.16-1.744-0.42v0.986H8.121v-0.986
		c-1.23-0.609-2.066-1.836-2.066-3.3h-0.08v1.296c0,0.35-0.218,0.678-0.51,0.895c0.587,1.115,1.589,1.979,2.797,2.393l-0.048-0.291
		h0.001l0.049,0.293c0.491,0.168,1.009,0.277,1.554,0.281l0.002-0.002c0.013,0,0.021,0.002,0.037,0.002
		c0.771,0,1.559-0.203,2.396-0.621l0.221-0.109v0.246c0.021,0.008,0.061,0.045,0.08,0.107L13.871,13.229 M8.579,2.585V2.77H8.578
		L8.579,2.585L8.579,2.585z M8.67,3.041L8.67,3.041L8.396,3.133L8.67,3.041z M8.943,3.042L8.943,3.042l0.184-0.001L9.218,2.95
		l0.458-0.091l0.184,0.182L9.855,3.042L9.674,2.859L9.217,2.951L9.126,3.042H8.943z M9.609,3.103l0.005,0.001l-0.123,0.03
		L9.609,3.103z M10.496,3.133l0.09-0.183l0,0L10.496,3.133z M14.055,4.869l-0.219,0.273l0.217-0.273H14.055z M13.508,4.686v0.183
		h-0.002V4.686H13.508z"/>
	<path fill="#85A640" d="M3.466,5.612h0.515C4.027,5.487,4.05,5.359,4.106,5.233C4.052,5.357,4.029,5.486,3.982,5.612h0.021v3.107
		c0,0.502,0.432,0.836,0.834,0.836c0.083,0,0.165-0.025,0.246-0.057c0-0.002,0-0.002-0.001-0.002C5.129,9.48,5.169,9.457,5.213,9.43
		C4.92,8.791,4.745,8.088,4.745,7.333c0-0.188,0.035-0.366,0.054-0.548c0.013-0.121,0.015-0.247,0.037-0.364
		C4.816,6.538,4.813,6.664,4.8,6.785c-0.02,0.182-0.055,0.36-0.055,0.548c0,0.752,0.175,1.458,0.468,2.097
		C5.258,9.4,5.302,9.373,5.343,9.34C5.532,9.178,5.67,8.951,5.67,8.719V7.428V5.695h0.815c0-0.001,0-0.001,0-0.001h0.192h0.151
		h1.167H8.78c0.5,0,0.833-0.432,0.833-0.835c0-0.098-0.026-0.462-0.258-0.675L9.311,4.23v0.181H9.309V4.229l0.045-0.046
		C9.27,4.105,9.153,4.054,8.999,4.042C8.976,4.041,8.967,4.024,8.943,4.024h-0.35L8.579,4.047H8.484H8.396V4.046h0.088h0.094
		l0.015-0.022h-0.04H8.396H8.201c0,0-0.001,0-0.001,0.001H6.18C5.914,4.321,5.688,4.651,5.496,5.004
		C5.687,4.651,5.914,4.32,6.18,4.024H6.007h-0.2c0,0,0,0,0,0.001H5.753v-1.61V0.834C5.753,0.336,5.322,0,4.918,0
		S4.085,0.336,4.085,0.834v3.108H0.894c-0.5,0-0.834,0.432-0.834,0.833c0,0.406,0.428,0.835,0.834,0.835h2.573
		C3.467,5.611,3.466,5.611,3.466,5.612z M9.4,4.502l0.09-0.09h0.001L9.4,4.502z M9.216,4.411L9.216,4.411L8.943,4.686L9.216,4.411z
		 M4.38,4.868c0.09-0.182,0.182-0.366,0.275-0.457C4.562,4.502,4.47,4.686,4.38,4.868L4.106,5.141L4.38,4.868z M4.663,6.648
		L4.663,6.648C4.684,6.49,4.697,6.332,4.731,6.179l0,0C4.697,6.332,4.684,6.49,4.663,6.648z M4.995,6.374
		c-0.06,0.311-0.096,0.63-0.096,0.959C4.899,7.003,4.935,6.683,4.995,6.374L4.927,6.237l0.068,0.135
		C4.995,6.372,4.995,6.373,4.995,6.374z"/>
</g>
</svg>
