<?xml version="1.0" encoding="utf-8"?>
<!-- Generator: Adobe Illustrator 15.1.0, SVG Export Plug-In . SVG Version: 6.00 Build 0)  -->
<!DOCTYPE svg PUBLIC "-//W3C//DTD SVG 1.1//EN" "http://www.w3.org/Graphics/SVG/1.1/DTD/svg11.dtd">
<svg version="1.1" id="Layer_1" xmlns="http://www.w3.org/2000/svg" xmlns:xlink="http://www.w3.org/1999/xlink" x="0px" y="0px"
	 width="17.5px" height="15px" viewBox="0 0 17.5 15" enable-background="new 0 0 17.5 15" xml:space="preserve">
<g>
	<path fill="#E66426" d="M1.25,0v15h15V0H1.25z M12.5,14.175c-0.075,0-0.225,0-0.3,0c-0.525,0-0.976-0.3-1.125-0.825l-1.5-5.774
		L6.65,9.6C6.35,9.825,5.9,9.825,5.6,9.675C5.225,9.525,5,9.225,4.925,8.85L3.875,2.1c-0.075-0.525,0.3-1.125,0.9-1.2
		c0.675-0.15,1.2,0.3,1.35,0.9l0.75,4.95L9.65,4.8c0.3-0.225,0.675-0.225,1.05-0.15c0.375,0.15,0.6,0.45,0.675,0.75l1.875,7.275
		C13.475,13.35,13.1,13.95,12.5,14.175z"/>
</g>
</svg>
