<?xml version="1.0" encoding="utf-8"?>
<!-- Generator: Adobe Illustrator 15.1.0, SVG Export Plug-In . SVG Version: 6.00 Build 0)  -->
<!DOCTYPE svg PUBLIC "-//W3C//DTD SVG 1.1//EN" "http://www.w3.org/Graphics/SVG/1.1/DTD/svg11.dtd">
<svg version="1.1" id="Layer_1" xmlns="http://www.w3.org/2000/svg" xmlns:xlink="http://www.w3.org/1999/xlink" x="0px" y="0px"
	 width="17.5px" height="15px" viewBox="0 0 17.5 15" enable-background="new 0 0 17.5 15" xml:space="preserve">
<path fill="#666766" d="M8.75,0c-4.125,0-7.5,3.375-7.5,7.5S4.625,15,8.75,15s7.5-3.375,7.5-7.5S12.875,0,8.75,0 M8.75,1.8
	c0.75,0,1.425,0.6,1.425,1.425c0,0.75-0.6,1.425-1.425,1.425c-0.75,0-1.425-0.6-1.425-1.425C7.325,2.475,8,1.8,8.75,1.8
	 M10.025,11.925c0,0.675-0.601,1.2-1.275,1.2c-0.75,0-1.275-0.525-1.275-1.2v-5.55C7.475,5.7,8,5.1,8.75,5.1s1.275,0.525,1.275,1.2
	V11.925z"/>
</svg>
