<?xml version="1.0" encoding="utf-8"?>
<!-- Generator: Adobe Illustrator 15.1.0, SVG Export Plug-In . SVG Version: 6.00 Build 0)  -->
<!DOCTYPE svg PUBLIC "-//W3C//DTD SVG 1.1//EN" "http://www.w3.org/Graphics/SVG/1.1/DTD/svg11.dtd">
<svg version="1.1" id="Layer_1" xmlns="http://www.w3.org/2000/svg" xmlns:xlink="http://www.w3.org/1999/xlink" x="0px" y="0px"
	 width="15px" height="15px" viewBox="0 0 15 15" enable-background="new 0 0 15 15" xml:space="preserve">
<path fill="#E66426" d="M0,0v15h15V0H0z M3.195,4.2c0-0.825,0.675-1.5,1.5-1.5c0.825,0,1.5,0.675,1.5,1.5c0,0.825-0.675,1.5-1.5,1.5
	C3.87,5.7,3.195,5.1,3.195,4.2z M6.195,12.45c-0.825,0-1.5-0.675-1.5-1.5s0.675-1.5,1.5-1.5c0.825,0,1.5,0.675,1.5,1.5
	S7.02,12.45,6.195,12.45z M10.395,9c-0.825,0-1.5-0.675-1.5-1.5S9.569,6,10.395,6s1.5,0.675,1.5,1.5S11.22,9,10.395,9z"/>
</svg>
