<?xml version="1.0" encoding="utf-8"?>
<!-- Generator: Adobe Illustrator 15.1.0, SVG Export Plug-In . SVG Version: 6.00 Build 0)  -->
<!DOCTYPE svg PUBLIC "-//W3C//DTD SVG 1.1//EN" "http://www.w3.org/Graphics/SVG/1.1/DTD/svg11.dtd">
<svg version="1.1" id="Layer_1" xmlns="http://www.w3.org/2000/svg" xmlns:xlink="http://www.w3.org/1999/xlink" x="0px" y="0px"
	 width="17.5px" height="15px" viewBox="0 0 17.5 15" enable-background="new 0 0 17.5 15" xml:space="preserve">
<g>
	<rect x="1.25" fill="#FFFFFF" width="15" height="15"/>
	<rect x="5.375" y="4.125" fill="#E66426" width="4.275" height="1.725"/>
	<rect x="5.375" y="9.15" fill="#E66426" width="4.275" height="1.725"/>
	<rect x="5.375" y="6.6" fill="#E66426" width="4.275" height="1.725"/>
	<rect x="10.4" y="6.6" fill="#E66426" width="4.274" height="1.725"/>
	<rect x="10.4" y="9.15" fill="#E66426" width="4.274" height="1.725"/>
	<rect x="10.4" y="4.125" fill="#E66426" width="4.274" height="1.725"/>
	<rect x="10.4" y="11.625" fill="#E66426" width="4.274" height="1.725"/>
	<rect x="2.9" y="9.15" fill="#E66426" width="1.725" height="1.725"/>
	<rect x="2.9" y="11.625" fill="#E66426" width="1.725" height="1.725"/>
	<path fill="#E66426" d="M1.25,0v15h15V0H1.25z M15.35,14.1H2.15V0.9h13.275v13.2H15.35z"/>
	<rect x="2.9" y="4.125" fill="#E66426" width="1.725" height="1.725"/>
	<rect x="2.9" y="6.6" fill="#E66426" width="1.725" height="1.725"/>
	<rect x="5.375" y="11.625" fill="#E66426" width="4.275" height="1.725"/>
</g>
</svg>
