<?xml version="1.0" encoding="utf-8"?>
<!-- Generator: Adobe Illustrator 15.1.0, SVG Export Plug-In . SVG Version: 6.00 Build 0)  -->
<!DOCTYPE svg PUBLIC "-//W3C//DTD SVG 1.1//EN" "http://www.w3.org/Graphics/SVG/1.1/DTD/svg11.dtd">
<svg version="1.1" id="Layer_2" xmlns="http://www.w3.org/2000/svg" xmlns:xlink="http://www.w3.org/1999/xlink" x="0px" y="0px"
	 width="15px" height="15px" viewBox="0 0 15 15" enable-background="new 0 0 15 15" xml:space="preserve">
<g>
	<path fill="#302E79" d="M7.5,0C3.375,0,0,3.375,0,7.5S3.375,15,7.5,15c4.125,0,7.5-3.375,7.5-7.5S11.625,0,7.5,0z M13.5,4.275
		c-0.449-0.45-0.975-0.825-1.65-1.125c-0.299-0.601-0.674-1.125-1.125-1.65C11.85,2.175,12.826,3.15,13.5,4.275z M14.025,6.15
		c-0.375-0.226-0.824-0.375-1.35-0.525C12.6,5.175,12.451,4.65,12.301,4.2C13.051,4.725,13.65,5.4,14.025,6.15z M9.826,9.9
		c0.75-0.076,1.424-0.15,2.023-0.301c-0.148,0.6-0.375,1.199-0.6,1.801c-0.449,0.148-1.049,0.375-1.725,0.523
		C9.676,11.324,9.75,10.574,9.826,9.9z M9.6,3.15c0.602,0.149,1.201,0.375,1.801,0.6c0.15,0.45,0.375,1.05,0.525,1.725
		c-0.6-0.149-1.35-0.225-2.025-0.3C9.826,4.425,9.75,3.75,9.6,3.15z M9.975,9.15c0.076-0.525,0.076-1.125,0.076-1.65
		s0-1.125-0.076-1.65c0.826,0.075,1.5,0.226,2.102,0.375c0,0.375,0.074,0.824,0.074,1.275c0,0.449,0,0.9-0.074,1.275
		C11.475,8.924,10.801,9.074,9.975,9.15z M10.801,2.7C10.35,2.55,9.826,2.4,9.375,2.325C9.225,1.8,9.076,1.35,8.85,0.975
		C9.6,1.275,10.275,1.875,10.801,2.7z M9.301,7.5c0,0.6,0,1.199-0.076,1.725C8.701,9.225,8.1,9.299,7.5,9.299
		c-0.6,0-1.199,0-1.725-0.074C5.701,8.699,5.701,8.1,5.701,7.5s0-1.2,0.074-1.725C6.3,5.775,6.9,5.7,7.5,5.7
		c0.6,0,1.202,0,1.725,0.075C9.301,6.3,9.301,6.9,9.301,7.5z M9.15,5.025C8.625,4.95,8.025,4.95,7.5,4.95
		C6.976,5.025,6.375,5.025,5.851,5.025c0.074-0.825,0.225-1.5,0.375-2.101C6.601,2.925,7.05,2.85,7.5,2.85
		c0.451,0,0.901,0,1.276,0.075C8.926,3.525,9.076,4.2,9.15,5.025z M7.5,0.75c0.301,0,0.75,0.525,1.051,1.5
		c-0.375,0-0.676-0.075-1.051-0.075c-0.374,0-0.749,0-1.049,0.075C6.75,1.275,7.201,0.75,7.5,0.75z M6.226,0.975
		C6,1.35,5.775,1.8,5.625,2.325C5.175,2.4,4.65,2.55,4.201,2.7C4.8,1.875,5.476,1.35,6.226,0.975z M5.101,9.15
		C4.275,9.074,3.601,8.924,3,8.775C2.925,8.4,2.851,7.949,2.851,7.5c0-0.451,0-0.9,0.074-1.275c0.6-0.149,1.275-0.3,2.1-0.375
		c0,0.525,0,1.125,0,1.65S5.025,8.625,5.101,9.15z M5.101,9.824C5.175,10.574,5.25,11.25,5.4,11.85c-0.6-0.15-1.199-0.375-1.799-0.6
		c-0.15-0.451-0.375-1.051-0.525-1.725C3.675,9.674,4.425,9.75,5.101,9.824z M5.101,5.1C4.351,5.175,3.675,5.25,3.076,5.4
		C3.226,4.8,3.451,4.2,3.675,3.6C4.201,3.45,4.8,3.225,5.476,3.075C5.326,3.675,5.175,4.425,5.101,5.1z M4.275,1.5
		C3.826,2.025,3.451,2.55,3.15,3.15C2.55,3.45,2.025,3.825,1.5,4.275C2.175,3.15,3.15,2.175,4.275,1.5z M2.701,4.275
		C2.55,4.65,2.4,5.175,2.326,5.625C1.8,5.775,1.351,6,0.976,6.225C1.275,5.475,1.875,4.8,2.701,4.275z M0.75,7.5
		c0-0.301,0.524-0.75,1.5-1.05C2.175,6.75,2.175,7.125,2.175,7.5s0,0.75,0.075,1.049C1.275,8.25,0.75,7.8,0.75,7.5z M2.326,9.375
		C2.4,9.9,2.55,10.35,2.701,10.799C1.951,10.275,1.351,9.6,0.976,8.85C1.351,9,1.8,9.225,2.326,9.375z M1.5,10.725
		c0.45,0.449,0.976,0.824,1.649,1.125c0.301,0.6,0.676,1.125,1.125,1.65C3.15,12.824,2.175,11.85,1.5,10.725z M4.201,12.299
		c0.449,0.15,0.975,0.301,1.425,0.375c0.149,0.525,0.3,0.977,0.524,1.352C5.4,13.725,4.726,13.125,4.201,12.299z M5.851,9.975
		c0.524,0.074,1.125,0.074,1.648,0.074C8.025,9.975,8.625,9.975,9.15,9.975c-0.074,0.824-0.225,1.5-0.375,2.1
		C8.326,12.15,7.951,12.15,7.5,12.15c-0.449,0-0.898,0-1.273-0.076C6.076,11.475,5.925,10.799,5.851,9.975z M7.5,14.25
		c-0.299,0-0.749-0.525-1.049-1.5c0.375,0,0.675,0.074,1.049,0.074c0.375,0,0.75,0,1.051-0.074C8.25,13.725,7.8,14.25,7.5,14.25z
		 M8.775,14.025C9,13.65,9.15,13.199,9.301,12.674c0.525-0.074,0.975-0.225,1.424-0.375C10.201,13.125,9.525,13.65,8.775,14.025z
		 M10.725,13.5c0.451-0.451,0.826-0.975,1.125-1.65c0.602-0.301,1.125-0.676,1.65-1.125C12.826,11.85,11.85,12.824,10.725,13.5z
		 M12.301,10.799c0.15-0.449,0.299-0.975,0.375-1.424c0.525-0.15,0.975-0.301,1.35-0.525C13.725,9.6,13.125,10.275,12.301,10.799z
		 M12.75,8.549c0-0.375,0.076-0.674,0.076-1.049s0-0.75-0.076-1.05c0.975,0.3,1.5,0.749,1.5,1.05C14.25,7.8,13.725,8.25,12.75,8.549
		z"/>
</g>
</svg>
