<?xml version="1.0" encoding="utf-8"?>
<!-- Generator: Adobe Illustrator 17.1.0, SVG Export Plug-In . SVG Version: 6.00 Build 0)  -->
<!DOCTYPE svg PUBLIC "-//W3C//DTD SVG 1.1//EN" "http://www.w3.org/Graphics/SVG/1.1/DTD/svg11.dtd">
<svg version="1.1" id="Layer_1" xmlns="http://www.w3.org/2000/svg" xmlns:xlink="http://www.w3.org/1999/xlink" x="0px" y="0px"
	 viewBox="0 0 20 20" enable-background="new 0 0 20 20" xml:space="preserve">
<g>
	<polygon fill="#85A640" points="8.9,7.1 9,6.9 8.8,6.8 8.6,6.9 8.8,7.2 	"/>
	<polygon fill="#85A640" points="9.5,7.7 9.2,7.7 9.1,7.9 9,8 9.2,8.1 	"/>
	<polygon fill="#85A640" points="9.6,7.6 9.6,7.5 9.6,7.5 9.6,7.4 9.3,7.4 9.1,7.5 9.1,7.6 9.2,7.6 	"/>
	<polygon fill="#85A640" points="9.7,7.4 9.7,7.6 9.9,7.6 	"/>
	<path fill="#85A640" d="M19.2,9.7c0,0,0-0.1,0-0.1L19.2,9.7L19.2,9.7z"/>
	<polygon fill="#85A640" points="8.4,5.8 8.4,5.7 8.2,5.7 8.1,5.8 8,5.8 8,5.8 8,5.9 8.3,5.9 	"/>
	<polygon fill="#85A640" points="10.2,8.1 10.2,7.9 9.9,7.8 9.9,7.8 9.9,8 10,8.1 	"/>
	<path fill="#85A640" d="M15.5,6.6l0.1-0.1l0.2,0l0.1,0.3L16,6.9L16.1,7l0.2,0.1l-0.1,0.2l-0.3,0h-0.2l0-0.2l0.2,0l0-0.1l-0.2-0.1
		l-0.1-0.1L15.5,6.6L15.5,6.6z M15.1,7l0.1-0.2l0.2,0l0.1,0.1l0,0.2l-0.3,0.2h-0.2V7z M11.2,7.9l-0.1,0l0-0.1l0.1-0.1l0.1,0.1
		L11.2,7.9z M11.7,7.7l-0.1,0l0,0.1l-0.1,0l-0.1,0c0,0,0-0.1,0-0.1h0V7.7h0.2l0-0.1l0.1,0L11.7,7.7L11.7,7.7z"/>
	<path fill="#85A640" d="M18.5,8v0.3l0.1,0l0.1,0C18.7,8.2,18.6,8.1,18.5,8L18.5,8z"/>
	<path fill="#85A640" d="M8.4,6.2c0,0,0-0.2,0-0.2c0,0-0.2,0-0.2,0L8,6.2l0.1,0.1L8.4,6.2z"/>
	<polygon fill="#85A640" points="10.2,7.7 10,7.7 10,7.7 10.1,7.8 	"/>
	<polygon fill="#85A640" points="9.6,7.9 9.7,7.9 9.8,7.8 9.8,7.7 9.6,7.7 	"/>
	<path fill="#85A640" d="M19.5,8.3l0-0.1l0,0C19.4,8.2,19.4,8.3,19.5,8.3L19.5,8.3z"/>
	<polygon fill="#85A640" points="9.6,8 9.5,8 9.5,8.2 9.7,8.2 9.8,8.1 9.8,8 9.6,8 	"/>
	<path fill="#85A640" d="M6.1,7.4C6,7.5,5.9,7.7,5.9,7.9l0.3-0.4L6.1,7.4z"/>
	<path fill="#85A640" d="M17.1,6.8l0,0.1l0.5,0l0.1-0.2c-0.1-0.1-0.2-0.3-0.4-0.4l0,0.3L17.1,6.8z"/>
	<polygon fill="#85A640" points="15.8,6.9 15.8,7 15.6,7 15.6,7.3 15.8,7.3 16.1,7.2 16.2,7.1 16.1,7 16,6.9 15.9,6.7 15.8,6.4 
		15.6,6.5 15.5,6.6 15.5,6.7 15.6,6.8 	"/>
	<polygon fill="#85A640" points="15.6,7 15.6,6.8 15.4,6.7 15.2,6.8 15.1,7 15.1,7.2 15.3,7.2 	"/>
	<path fill="#85A640" d="M11.6,7.6l0,0.1h-0.2v0.1h0c0,0,0,0,0,0.1l0.1,0l0.1,0l0-0.1l0.1,0l0-0.1L11.6,7.6L11.6,7.6z"/>
	<polygon fill="#85A640" points="11.1,7.8 11.1,7.9 11.2,7.9 11.2,7.8 11.1,7.7 	"/>
	<path fill="#85A640" d="M20,11.1c0-0.2,0-0.5,0-0.7c-0.1-0.7-0.2-1.5-0.5-2.1c0,0,0-0.1-0.1-0.1c-0.4-0.8-0.9-1.6-1.5-2.3
		c0,0-0.1-0.1-0.1-0.1c-0.1-0.1-0.2-0.2-0.4-0.3c-1.4-1.3-3.2-2-5.3-2c-2,0-3.9,0.8-5.3,2.1C6.6,5.8,6.3,6.1,6,6.4
		c-1,1.3-1.6,3-1.6,4.8c0,4.3,3.5,7.8,7.8,7.8c3,0,5.7-1.7,7-4.3c0.3-0.5,0.5-1.1,0.6-1.7c0-0.2,0.1-0.3,0.1-0.5
		C20,12.1,20,11.7,20,11.1C20,11.2,20,11.1,20,11.1 M18.5,8L18.5,8c0.1,0.1,0.2,0.2,0.2,0.3l-0.1,0l-0.1,0V8z M17.4,6.6l0-0.3
		c0.1,0.1,0.2,0.3,0.4,0.4l-0.1,0.2l-0.5,0l0-0.1L17.4,6.6z M19,9.2h-0.6L18.1,9l-0.4,0v0.2h-0.1l-0.1-0.1L16.9,9V8.6l-0.8,0.1
		l-0.2,0.1h-0.3l-0.2,0L15,8.9v0.4l-0.8,0.6l0.1,0.2h0.2l0,0.2l-0.1,0l0,0.6l0.7,0.8h0.3l0,0h0.5l0.2-0.1h0.3l0.2,0.2l0.5,0
		l-0.1,0.6l0.5,0.9L17,13.8l0,0.2l0.2,0.2v0.6l0.3,0.4v0.5h0.2c-1.3,1.6-3.3,2.6-5.6,2.6c-4,0-7.2-3.2-7.2-7.2c0-1,0.2-1.9,0.6-2.8
		V8.2l0.3-0.3C5.9,7.7,6,7.5,6.1,7.4l0,0.1L5.9,7.9C5.8,8,5.7,8.2,5.6,8.4v0.4l0.3,0.1v0.6L6.2,10l0.2,0l0-0.2L6.2,9.4L6.1,9h0.2
		l0.1,0.4L6.7,10l-0.1,0.2l0.3,0.4l0.6,0.2v-0.1l0.2,0l0,0.2l0.2,0L8.2,11l0.4,0.5l0.5,0L9.3,12l-0.4,0.3l0,0.4l-0.1,0.2l0.5,0.7
		l0,0.2c0,0,0.2,0.1,0.2,0.1c0,0,0.4,0.3,0.4,0.3v1.2l0.1,0L10.1,16l0.2,0.3l0,0.6l0.3,0.6l0.4,0.4l0.4,0l0-0.1l-0.3-0.3l0-0.1
		l0.1-0.2l0-0.2l-0.2,0L11,16.8l0.2-0.2l0-0.1L11,16.5l0-0.1l0.3,0l0.4-0.2l0.1-0.3l0.4-0.6l-0.1-0.4l0.1-0.2l0.4,0l0.3-0.2l0.1-0.9
		l0.3-0.4l0.1-0.3l-0.3-0.1L13,12.5l-0.6,0l-0.5-0.2l0-0.4l-0.2-0.3l-0.5,0L11,11.2l-0.2-0.1l0,0.1l-0.4,0l-0.2-0.2L9.7,11l-0.4,0.4
		l-0.6-0.1l0-0.6l-0.4-0.1l0.2-0.3l0-0.2l-0.5,0.4l-0.3,0l-0.1-0.3l0.1-0.3l0.2-0.4l0.4-0.2H9l0,0.3l0.3,0.1l0-0.4L9.5,9l0.4-0.3
		l0-0.2l0.4-0.5l0.5-0.3l0,0l0.3-0.3l0.1,0l0.1,0.1l0.1-0.1l0,0l-0.1,0l-0.1,0V7.2l0.1-0.1h0.2l0.1,0l0.1,0.1l0.1,0v0l0,0l0.2,0
		l0-0.1l0.1,0v0.1l-0.1,0.1l0,0.1l0.4,0.1c0,0,0,0,0,0l0.1,0l0-0.2l-0.3-0.1l0-0.1l0.3-0.1l0-0.3l-0.3-0.2l0-0.4l-0.4,0.2h-0.1
		l0-0.3l-0.5-0.1l-0.2,0.2v0.5l-0.4,0.1l-0.2,0.3l-0.2,0V6.8l-0.4,0L9.6,6.6L9.6,6.3L10.2,6l0.3-0.1l0,0.2l0.2,0l0-0.1l0.2,0l0,0
		l-0.1,0l0-0.1l0.2,0l0.1-0.1l0,0l0,0l0,0l0.5-0.1l0.2,0.2L11.4,6l0.7,0.2l0.1-0.2h0.3l0.1-0.2l-0.2-0.1V5.4l-0.7-0.3l-0.5,0.1
		l-0.3,0.1l0,0.3l-0.3,0l0-0.2l0.3-0.2l-0.5,0l-0.1,0l-0.1,0.2l0.2,0l0,0.2l-0.3,0l0,0.1l-0.4,0c0,0,0-0.2,0-0.2c0,0,0.3,0,0.3,0
		l0.3-0.3L10,5.1L9.8,5.3l-0.3,0L9.3,5H8.9L8.5,5.3h0.4l0,0.1L8.8,5.5l0.4,0l0.1,0.2l-0.5,0l0-0.1L8.5,5.5L8.3,5.4L8,5.4
		C9.2,4.5,10.6,4,12.2,4c1.8,0,3.5,0.7,4.7,1.8L16.8,6l-0.3,0.1l-0.1,0.2l0,0.2l0.2,0l0.1,0.3L17,6.6l0,0.3h-0.1l-0.2,0l-0.3,0
		l-0.3,0.4l-0.4,0.1l-0.1,0.3l0.2,0l0,0.2l-0.4-0.1l-0.3,0.1l-0.1,0.2l0.1,0.4l0.2,0.1l0.3,0l0.2,0L16,8.4l0.4-0.5l0.2,0l0.2-0.2
		l0,0.2l0.6,0.4l-0.1,0.1l-0.3,0l0.1,0.1l0.2,0l0.2-0.1l0-0.2l0.1,0l-0.1-0.1L17.1,8L17,7.7h0.3l0.1,0.1L17.7,8l0,0.3L18,8.6
		l0.1-0.4l0.2-0.1l0,0.3l0.2,0.2l0.4,0C18.9,8.8,19,9,19,9.2L19,9.2z M19.1,9.6L19.1,9.6C19.2,9.6,19.2,9.6,19.1,9.6L19.1,9.6z"/>
	<path fill="#85A640" d="M5.6,8.2v0.2C5.7,8.2,5.8,8,5.9,7.9L5.6,8.2z"/>
	<path fill="#FFFFFF" d="M16.5,10.6c0,2.6-2.1,4.7-4.7,4.7c-2.6,0-4.7-2.1-4.7-4.7C7,8,9.2,5.9,11.8,5.9C14.4,5.9,16.5,8,16.5,10.6"
		/>
	<path fill="#85A640" stroke="#FFFFFF" stroke-width="0.1" stroke-miterlimit="10" d="M11.8,16.2c1,0,1.9-0.3,2.7-0.7
		c0,0.1,0.1,0.1,0.1,0.2l1.6,1.6c0,0,0.1,0.1,0.1,0.1c0.7,0.6,1.7,0.5,2.3-0.1c0.6-0.7,0.5-1.7-0.1-2.3l-1.6-1.6
		c-0.1-0.1-0.1-0.1-0.2-0.1c0.4-0.8,0.7-1.7,0.7-2.7c0-3.1-2.5-5.6-5.6-5.6s-5.6,2.5-5.6,5.6C6.2,13.7,8.7,16.2,11.8,16.2 M7.8,10.7
		c0-2.2,1.8-4,4-4c2.2,0,4,1.8,4,4c0,1-0.4,1.9-0.9,2.6c-0.2,0.1-0.3,0.2-0.4,0.4c0,0,0,0.1,0,0.1c0,0,0,0,0,0
		c-0.7,0.5-1.5,0.8-2.5,0.8C9.6,14.7,7.8,12.9,7.8,10.7L7.8,10.7z"/>
	<path fill="none" stroke="#FFFFFF" stroke-width="0.5" stroke-miterlimit="10" d="M11.8,16.2c1,0,1.9-0.3,2.7-0.7
		c0,0.1,0.1,0.1,0.1,0.2l1.6,1.6c0,0,0.1,0.1,0.1,0.1c0.7,0.6,1.7,0.5,2.3-0.1c0.6-0.7,0.5-1.7-0.1-2.3l-1.6-1.6
		c-0.1-0.1-0.1-0.1-0.2-0.1c0.4-0.8,0.7-1.7,0.7-2.7c0-3.1-2.5-5.6-5.6-5.6s-5.6,2.5-5.6,5.6C6.2,13.7,8.7,16.2,11.8,16.2z
		 M7.8,10.7c0-2.2,1.8-4,4-4c2.2,0,4,1.8,4,4c0,1-0.4,1.9-0.9,2.6c-0.2,0.1-0.3,0.2-0.4,0.4c0,0,0,0.1,0,0.1c0,0,0,0,0,0
		c-0.7,0.5-1.5,0.8-2.5,0.8C9.6,14.7,7.8,12.9,7.8,10.7L7.8,10.7z"/>
	<path fill="#85A640" stroke="#FFFFFF" stroke-width="0.5" stroke-miterlimit="10" d="M11.3,6.7H7.6V3c0-0.7-0.6-1.2-1.2-1.2
		S5.2,2.3,5.2,3v3.6H1.5c-0.7,0-1.2,0.6-1.2,1.2s0.6,1.2,1.2,1.2h3.6v3.6c0,0.7,0.6,1.2,1.2,1.2s1.2-0.6,1.2-1.2V9.1h3.6
		c0.7,0,1.2-0.6,1.2-1.2S12,6.7,11.3,6.7z"/>
</g>
</svg>
