<?xml version="1.0" encoding="utf-8"?>
<!-- Generator: Adobe Illustrator 17.1.0, SVG Export Plug-In . SVG Version: 6.00 Build 0)  -->
<!DOCTYPE svg PUBLIC "-//W3C//DTD SVG 1.1//EN" "http://www.w3.org/Graphics/SVG/1.1/DTD/svg11.dtd">
<svg version="1.1" id="Layer_1" xmlns="http://www.w3.org/2000/svg" xmlns:xlink="http://www.w3.org/1999/xlink" x="0px" y="0px"
	 viewBox="0 0 33 20" enable-background="new 0 0 33 20" xml:space="preserve">
<g>
	<polygon fill="#85A640" points="18.8,4.8 18.9,4.5 18.7,4.4 18.5,4.5 18.6,4.8 	"/>
	<polygon fill="#85A640" points="19.5,5.5 19.2,5.5 19,5.7 18.9,6 19.1,6 	"/>
	<polygon fill="#85A640" points="19.7,5.4 19.7,5.2 19.6,5.2 19.6,5.1 19.3,5.1 19,5.2 19,5.4 19.2,5.4 	"/>
	<polygon fill="#85A640" points="19.8,5.2 19.8,5.4 20,5.4 	"/>
	<path fill="#85A640" d="M32,8c0-0.1,0-0.1,0-0.2l0,0L32,8z"/>
	<polygon fill="#85A640" points="18.2,3.1 18.2,3 17.8,3 17.8,3 17.6,3 17.6,3 17.6,3.2 18.1,3.2 	"/>
	<polygon fill="#85A640" points="20.4,6 20.4,5.8 20.1,5.7 20.1,5.7 20.1,5.9 20.1,6 	"/>
	<path fill="#85A640" d="M27.2,4.1l0.1-0.1l0.3-0.1l0.1,0.4l0.2,0.3L28,4.6l0.2,0.1L28,4.9l-0.4,0h-0.3l0-0.3l0.2,0l0-0.1l-0.2-0.1
		l-0.1-0.1L27.2,4.1L27.2,4.1z M26.7,4.6l0.2-0.3l0.2-0.1l0.2,0.1l0,0.2l-0.4,0.3h-0.2V4.6z M21.7,5.8l-0.2,0l0-0.1l0.1-0.1l0.1,0.1
		L21.7,5.8z M22.4,5.5l-0.1,0l0,0.1l-0.1,0.1l-0.2,0c0,0,0-0.1,0-0.1h-0.1V5.6h0.3l0.1-0.1l0.1,0l0.1,0L22.4,5.5z"/>
	<path fill="#85A640" d="M31.1,5.9v0.4l0.2,0l0.1,0C31.3,6.1,31.2,6,31.1,5.9L31.1,5.9z"/>
	<path fill="#85A640" d="M18.1,3.7c0,0,0-0.2,0-0.2c0,0-0.2,0-0.2,0l-0.3,0.1l0.1,0.1L18.1,3.7z"/>
	<polygon fill="#85A640" points="20.4,5.6 20.2,5.5 20.2,5.6 20.3,5.6 	"/>
	<polygon fill="#85A640" points="19.7,5.8 19.8,5.8 20,5.7 20,5.5 19.7,5.5 	"/>
	<path fill="#85A640" d="M32.3,6.3l0-0.2l-0.1,0C32.2,6.2,32.3,6.2,32.3,6.3L32.3,6.3z"/>
	<polygon fill="#85A640" points="19.7,6 19.5,6 19.5,6.2 19.8,6.2 19.9,6 19.9,5.9 19.7,5.9 	"/>
	<path fill="#85A640" d="M15.2,5.1c-0.1,0.2-0.3,0.4-0.4,0.6l0.4-0.5L15.2,5.1z"/>
	<path fill="#85A640" d="M29.3,4.4l0,0.1l0.6,0l0.2-0.3C30,4,29.8,3.9,29.7,3.7l0,0.4L29.3,4.4z"/>
	<polygon fill="#85A640" points="27.6,4.4 27.6,4.6 27.4,4.6 27.3,5 27.6,5 28,4.9 28.1,4.7 28,4.6 27.8,4.5 27.7,4.3 27.6,3.9 
		27.3,3.9 27.2,4.1 27.2,4.2 27.4,4.3 	"/>
	<polygon fill="#85A640" points="27.3,4.6 27.3,4.4 27.2,4.3 26.9,4.4 26.7,4.6 26.7,4.8 26.9,4.8 	"/>
	<path fill="#85A640" d="M22.2,5.4l-0.1,0.1h-0.3v0.1H22c0,0,0,0,0,0.1l0.2,0l0.1-0.1l0-0.1l0.1,0l0.1-0.1l-0.1,0L22.2,5.4z"/>
	<polygon fill="#85A640" points="21.6,5.7 21.5,5.8 21.7,5.8 21.8,5.6 21.6,5.6 	"/>
	<path fill="#85A640" d="M33,9.9c0-0.3,0-0.6,0-0.9c-0.1-1-0.3-1.9-0.7-2.7c0-0.1,0-0.1-0.1-0.2c-0.5-1.1-1.1-2.1-1.9-2.9
		c-0.1-0.1-0.1-0.1-0.2-0.2c-0.1-0.2-0.3-0.3-0.5-0.4C27.9,1,25.6,0,23,0c-2.6,0-5,1-6.8,2.6c-0.4,0.4-0.8,0.8-1.1,1.2
		C13.8,5.6,13,7.7,13,10c0,5.5,4.5,10,10,10c3.9,0,7.2-2.2,8.9-5.5c0.4-0.7,0.6-1.4,0.8-2.2c0-0.2,0.1-0.4,0.1-0.6
		c0.1-0.6,0.2-1.2,0.2-1.7C33,10,33,9.9,33,9.9 M31.1,5.9L31.1,5.9c0.1,0.1,0.2,0.2,0.3,0.4l-0.1,0l-0.2,0V5.9z M29.7,4.2l0-0.4
		C29.8,3.9,30,4,30.1,4.2l-0.2,0.3l-0.6,0l0-0.1L29.7,4.2z M31.8,7.5H31l-0.4-0.3l-0.5,0v0.3H30l-0.2-0.1L29,7.1V6.6l-1,0.1
		l-0.3,0.2h-0.4l-0.2,0l-0.5,0.3v0.5l-1,0.7l0.1,0.3h0.2L25.8,9L25.6,9l0,0.8l0.9,1h0.4l0-0.1h0.7l0.2-0.2h0.4l0.2,0.2l0.6,0.1
		l-0.1,0.8l0.6,1.1l-0.3,0.6l0,0.3l0.3,0.3v0.7l0.4,0.5v0.6h0.3c-1.7,2.1-4.2,3.4-7.1,3.4c-5.1,0-9.2-4.1-9.2-9.2
		c0-1.3,0.3-2.5,0.7-3.6V6.1l0.3-0.4c0.1-0.2,0.2-0.4,0.4-0.6l0,0.2l-0.4,0.5c-0.1,0.2-0.2,0.5-0.3,0.7v0.5l0.4,0.2v0.7l0.4,0.6
		l0.3,0l0-0.2l-0.4-0.5l-0.1-0.5h0.2l0.1,0.5L16,8.5l-0.1,0.2l0.3,0.5L17,9.4V9.3l0.3,0l0,0.2l0.3,0l0.4,0.1l0.5,0.6l0.7,0.1
		l0.1,0.6l-0.5,0.3l0,0.5l-0.1,0.3l0.7,0.9l0.1,0.3c0,0,0.3,0.1,0.3,0.1c0,0,0.6,0.4,0.6,0.4v1.6l0.2,0.1l-0.1,0.7l0.3,0.4l-0.1,0.7
		L21,18l0.5,0.5l0.5,0l0.1-0.2L21.8,18l0-0.2l0.1-0.2l0-0.2l-0.3,0l-0.1-0.2l0.2-0.2l0-0.2l-0.3-0.1l0-0.2l0.4-0.1l0.5-0.3l0.2-0.3
		l0.6-0.7L23,14.7l0.2-0.3l0.5,0l0.4-0.3l0.1-1.1l0.4-0.5l0.1-0.3l-0.4-0.1l-0.2-0.4l-0.8,0l-0.6-0.2l0-0.5l-0.2-0.4l-0.6,0
		l-0.3-0.5l-0.3-0.1l0,0.2l-0.5,0l-0.2-0.3l-0.6-0.1l-0.5,0.5l-0.7-0.1l-0.1-0.8L18,9.2l0.2-0.4l-0.1-0.2L17.5,9L17.1,9l-0.2-0.3
		L17,8.3l0.2-0.4l0.6-0.3h1.1l0,0.3l0.4,0.2l0-0.6l0.3-0.3l0.6-0.4l0-0.3L20.7,6l0.6-0.3l-0.1,0l0.4-0.4l0.1,0l0.1,0.1L22,5.2l0,0
		l-0.2,0l-0.2-0.1V4.9l0.1-0.1H22l0.1,0l0.1,0.2l0.1,0v0l0,0l0.3,0l0-0.1l0.2,0V5l-0.1,0.1l0,0.2l0.5,0.2c0,0,0,0,0,0l0.1,0l0-0.2
		l-0.4-0.2l0-0.1l0.3-0.1l0-0.3l-0.4-0.2l0-0.5L22.4,4h-0.2l0-0.4l-0.7-0.2l-0.3,0.2v0.6l-0.5,0.2l-0.2,0.4l-0.2,0V4.3L20,4.3
		l-0.2-0.1l-0.1-0.3l0.8-0.5l0.4-0.1l0,0.3l0.2,0l0-0.1l0.2,0l0,0l-0.1,0l0-0.1l0.3,0l0.2-0.2l0,0l0,0l0.1-0.1l0.6-0.1l0.3,0.2
		l-0.7,0.4l0.9,0.2l0.1-0.3h0.4L23.5,3l-0.3-0.1V2.6l-0.9-0.4l-0.6,0.1l-0.3,0.2l0,0.4l-0.4-0.1L21,2.6l0.3-0.3l-0.6,0l-0.2,0.1
		l-0.1,0.2l0.2,0l0,0.2l-0.4,0l-0.1,0.2l-0.6,0c0,0,0-0.3,0-0.3c0,0,0.4,0,0.4,0l0.3-0.3l-0.2-0.1L20,2.4l-0.4,0l-0.2-0.3h-0.5
		l-0.5,0.4h0.5l0,0.1l-0.1,0.1l0.5,0l0.1,0.2l-0.6,0l0-0.2l-0.4-0.1l-0.2-0.1l-0.5,0C19.1,1.5,21,0.8,23,0.8c2.3,0,4.4,0.9,6.1,2.3
		l-0.1,0.2l-0.4,0.2l-0.2,0.2l0,0.2l0.2,0l0.1,0.3l0.4-0.2l0.1,0.4h-0.1l-0.3,0l-0.3,0.1L28.1,5l-0.5,0.1l-0.1,0.4l0.2,0l-0.1,0.3
		l-0.5-0.1l-0.4,0.1l-0.1,0.2l0.1,0.5L27,6.7l0.4,0l0.3,0l0.1-0.2l0.4-0.6l0.3,0.1l0.3-0.3l0.1,0.2l0.7,0.5l-0.1,0.1l-0.3,0l0.1,0.2
		l0.2,0l0.2-0.1l0-0.3l0.1-0.1l-0.1-0.1l-0.5-0.3l-0.1-0.4h0.4l0.1,0.1L30,5.9l0,0.4l0.4,0.4l0.1-0.5L30.8,6l0,0.4l0.2,0.3l0.5,0
		C31.6,6.9,31.7,7.2,31.8,7.5L31.8,7.5z M31.9,7.9L31.9,7.9C31.9,7.9,32,8,32,8L31.9,7.9z"/>
	<path fill="#85A640" d="M14.6,6.1v0.3c0.1-0.2,0.2-0.5,0.3-0.7L14.6,6.1z"/>
	<path fill="#FFFFFF" d="M28.5,9.3c0,3.4-2.7,6.1-6.1,6.1c-3.4,0-6.1-2.7-6.1-6.1c0-3.4,2.7-6.1,6.1-6.1C25.8,3.2,28.5,5.9,28.5,9.3
		"/>
	<path fill="#85A640" d="M22.5,16.5c1.2,0,2.4-0.3,3.4-0.9c0.1,0.1,0.1,0.2,0.2,0.3l2,2.1c0.1,0.1,0.1,0.1,0.2,0.2
		c0.9,0.8,2.2,0.7,2.9-0.2c0.8-0.9,0.7-2.2-0.2-2.9L29,13c-0.1-0.1-0.2-0.1-0.3-0.2c0.6-1,0.9-2.2,0.9-3.4c0-3.9-3.2-7.1-7.1-7.1
		s-7.1,3.2-7.1,7.1C15.3,13.3,18.5,16.5,22.5,16.5 M17.3,9.3c0-2.8,2.3-5.1,5.1-5.1c2.8,0,5.1,2.3,5.1,5.1c0,1.3-0.5,2.4-1.2,3.3
		c-0.2,0.1-0.4,0.3-0.6,0.5c0,0,0,0.1-0.1,0.1c0,0,0,0-0.1,0.1c-0.9,0.7-2,1.1-3.2,1.1C19.6,14.4,17.4,12.2,17.3,9.3L17.3,9.3z"/>
	<path fill="none" stroke="#FFFFFF" stroke-miterlimit="10" d="M22.5,16.5c1.2,0,2.4-0.3,3.4-0.9c0.1,0.1,0.1,0.2,0.2,0.3l2,2.1
		c0.1,0.1,0.1,0.1,0.2,0.2c0.9,0.8,2.2,0.7,2.9-0.2c0.8-0.9,0.7-2.2-0.2-2.9L29,13c-0.1-0.1-0.2-0.1-0.3-0.2c0.6-1,0.9-2.2,0.9-3.4
		c0-3.9-3.2-7.1-7.1-7.1s-7.1,3.2-7.1,7.1C15.3,13.3,18.5,16.5,22.5,16.5z M17.3,9.3c0-2.8,2.3-5.1,5.1-5.1c2.8,0,5.1,2.3,5.1,5.1
		c0,1.3-0.5,2.4-1.2,3.3c-0.2,0.1-0.4,0.3-0.6,0.5c0,0,0,0.1-0.1,0.1c0,0,0,0-0.1,0.1c-0.9,0.7-2,1.1-3.2,1.1
		C19.6,14.4,17.4,12.2,17.3,9.3L17.3,9.3z"/>
	<path fill="#85A640" d="M0.4,14.1c1.4,4.2,6,6.5,10.2,5.1c-3,1-6.3-0.6-7.3-3.6c-1-3,0.6-6.3,3.6-7.3L8,8l0.7,2.2l2.9-5.8L5.9,1.4
		l0.7,2.2L5.5,4C1.3,5.4-1,9.9,0.4,14.1"/>
</g>
</svg>
