<?xml version="1.0" encoding="utf-8"?>
<!-- Generator: Adobe Illustrator 15.1.0, SVG Export Plug-In . SVG Version: 6.00 Build 0)  -->
<!DOCTYPE svg PUBLIC "-//W3C//DTD SVG 1.1//EN" "http://www.w3.org/Graphics/SVG/1.1/DTD/svg11.dtd">
<svg version="1.1" id="Layer_1" xmlns="http://www.w3.org/2000/svg" xmlns:xlink="http://www.w3.org/1999/xlink" x="0px" y="0px"
	 width="15px" height="15px" viewBox="0 0 15 15" enable-background="new 0 0 15 15" xml:space="preserve">
<rect x="24.016" y="7.413" fill="#231F20" width="21.193" height="15.175"/>
<g>
	<path fill="#85A640" d="M5.177,7.155c-0.003,0.062-0.018,0.12-0.018,0.183c0,0.072,0.016,0.139,0.021,0.209l0.191,0.065
		l0.203,0.253L5.37,7.612L5.18,7.547c0.055,0.911,0.454,1.708,1.083,2.281l0.004,0.005c0.624,0.565,1.459,0.914,2.397,0.914
		c0.06,0,0.112,0,0.17-0.002c0.295,0,0.573-0.041,0.845-0.102l0.073-0.659l0.272-0.365l0.094-0.273L9.843,9.254L9.752,8.98H9.205
		L8.748,8.797V8.435L8.565,8.156H8.109L7.926,7.794L7.742,7.703v0.091H7.378L7.195,7.612H6.739L6.374,7.977L5.827,7.885V7.338
		L5.462,7.246l0.183-0.274V6.791L5.188,7.155H5.177z M5.917,9.346L5.917,9.346l0.105,0.146L5.917,9.346z"/>
	<path fill="#85A640" d="M12.413,13.315c-1.001,0.609-2.189,0.957-3.484,0.957c-3.65,0-6.572-2.92-6.572-6.57
		c0-0.46,0.048-0.896,0.141-1.323V5.828H2.19c-0.175,0.63-0.289,1.286-0.289,1.966c0,3.923,3.194,7.119,7.122,7.119
		c1.433,0,2.786-0.435,3.923-1.18c-0.095-0.053-0.194-0.093-0.278-0.166L12.413,13.315z"/>
	<path fill="#85A640" d="M15.683,5.146l-0.09-0.091c-0.364-0.73-0.821-1.46-1.37-2.099l-0.091-0.091
		c-0.09-0.091-0.182-0.181-0.362-0.274c-1.28-1.185-2.923-1.826-4.84-1.826c-1.489,0-2.903,0.505-4.073,1.329v1.541h0.03
		c0.31-0.325,0.647-0.624,1.032-0.862V2.683L5.645,2.59L5.461,2.499H5.188c1.094-0.821,2.374-1.278,3.834-1.278
		c1.643,0,3.194,0.639,4.29,1.643l-0.092,0.184l-0.275,0.091L12.853,3.32v0.184h0.184l0.092,0.273L13.4,3.596v0.271h-0.089h-0.184
		h-0.275l-0.09,0.124c0.159,0.201,0.303,0.41,0.431,0.632l0.025-0.025v0.004l-0.023,0.023c0.008,0.013,0.016,0.028,0.023,0.042V4.67
		c0.032,0.058,0.063,0.115,0.095,0.173l0.456,0.302l-0.001,0l-0.455-0.302c0.067,0.131,0.146,0.256,0.205,0.394l0,0
		c0.013,0.029,0.018,0.062,0.027,0.09h0.129l0.183-0.091V5.055h0.09l-0.09-0.09l-0.363-0.092l-0.093-0.273h0.001l0.093,0.273
		l0.364,0.092l0.091,0.091h-0.091v0.183L13.677,5.33h-0.129c0.068,0.168,0.115,0.345,0.161,0.521h-0.001
		c0.123,0.447,0.211,0.909,0.211,1.395c0,0.622-0.126,1.247-0.378,1.896l0.316,0.568l-0.21,0.212l1.232,1.231
		c0.102,0.102,0.161,0.224,0.232,0.341c0.102-0.167,0.211-0.329,0.299-0.505c0.271-0.456,0.457-1.005,0.546-1.553
		c0-0.183,0.093-0.273,0.093-0.457c0.091-0.364,0.091-0.729,0.091-1.276c0-0.184,0-0.457,0-0.64
		C16.05,6.424,15.957,5.694,15.683,5.146z M14.956,5.146h-0.002c0.002-0.09-0.089-0.179-0.181-0.271V4.873
		C14.863,4.965,14.956,5.055,14.956,5.146z M15.135,5.419c0,0,0,0.001,0,0.002h-0.363L14.59,5.239V5.237l0.182,0.182H15.135z
		 M14.315,5.42l0.09-0.366l0.184-0.091v0.002l-0.182,0.09L14.315,5.42L14.315,5.42l-0.273-0.273V5.146L14.315,5.42z M13.903,5.922
		l0.045,0.044h-0.001L13.903,5.922z"/>
	<path fill="#85A640" d="M11.029,6.972V7.52l0.639,0.731h0.274h0.073c0.08-0.286,0.14-0.587,0.14-0.914
		c0-0.611-0.171-1.177-0.446-1.676l-0.132,0.033v0.365l-0.73,0.548l0.092,0.184h0.182v0.181H11.029z"/>
	<path fill="#85A640" d="M8.333,3.863c0.083,0.075,0.159,0.16,0.214,0.261l0.019,0.019h0.092h0.181v-0.09H8.93v0.091l-0.092,0.09
		v0.091l0.367,0.091h0.09V4.233L9.022,4.143v-0.09l0.272-0.091V3.903c-0.208-0.04-0.42-0.066-0.638-0.066
		C8.547,3.837,8.438,3.852,8.333,3.863z"/>
	<path fill="#85A640" d="M6.374,6.423V6.059L6.473,5.91h-0.99C5.456,5.971,5.422,6.029,5.398,6.092l0.063-0.033H6.1v0.274
		L6.374,6.423z"/>
	<path fill="#85A640" d="M5.917,2.59h0.335C6.366,2.533,6.47,2.459,6.588,2.408H6.557L6.374,2.134H6.009L5.644,2.408h0.365v0.091
		L5.917,2.59z"/>
	<path fill="#85A640" d="M8.199,12.544l0.127-0.065c-0.401-0.026-0.786-0.095-1.159-0.209l0.119,0.179v0.548l0.274,0.55l0.364,0.363
		H8.29v-0.093l-0.274-0.271v-0.093l0.093-0.182V13.09H7.926v-0.183l0.184-0.183v-0.093H7.926v-0.088H8.199z"/>
	<path fill="#85A640" d="M13.223,13.539c0.505,0.203,1.136,0.112,1.535-0.284c0.352-0.412,0.408-0.994,0.185-1.475
		C14.478,12.467,13.888,13.054,13.223,13.539z"/>
	<path fill="#85A640" d="M4.854,7.337c0-0.095,0.021-0.184,0.028-0.277l0,0C4.895,6.895,4.9,6.728,4.933,6.568
		C4.98,6.338,5.068,6.124,5.156,5.91H4.774v1.427H4.854z"/>
	<path fill="#85A640" d="M12.67,13.143l0.201,0.204c0.103,0.089,0.227,0.141,0.35,0.192c0.666-0.485,1.255-1.072,1.721-1.759
		c-0.068-0.147-0.155-0.288-0.276-0.41l-1.234-1.233L13.205,9.91c-0.024-0.024-0.039-0.044-0.054-0.053
		c0.004,0.004-0.006,0.004-0.021,0.004h-0.248l0.11-0.22c0.224-0.447,0.381-0.878,0.485-1.3c0.088-0.369,0.138-0.733,0.138-1.095
		c0-0.509-0.098-0.989-0.242-1.452c-0.021-0.069-0.038-0.138-0.062-0.205c-0.02-0.053-0.029-0.111-0.053-0.163h0.002
		c-0.09-0.227-0.206-0.437-0.326-0.646h-0.001c-0.11-0.191-0.229-0.372-0.362-0.544l-0.354,0.088l-0.093,0.274l0.09-0.274
		l0.357-0.088c-0.895-1.161-2.279-1.922-3.848-1.944c-0.025,0-0.045-0.006-0.066-0.006c-0.227,0-0.439,0.039-0.656,0.067
		L7.834,2.408l0.167-0.055c-0.087,0.012-0.176,0.01-0.261,0.025L7.738,2.379c-0.149,0.029-0.292,0.077-0.438,0.12H7.3
		C7.205,2.527,7.11,2.555,7.018,2.587L7.006,2.59C6.918,2.62,6.825,2.639,6.741,2.674v0.099h0.364v0.001H6.739V2.674
		C6.19,2.905,5.695,3.233,5.268,3.635h1.419L6.648,3.595l0.039,0.039h1.055l0.015,0.004l0.168-0.043v0.001L7.757,3.638
		c0.023,0,0.039,0.012,0.062,0.013C8.09,3.584,8.366,3.533,8.657,3.533c0.165,0,0.321,0.029,0.481,0.048v0
		c0.987,0.129,1.848,0.627,2.448,1.361l0.08-0.161l0.274-0.092h0.001l-0.274,0.092l-0.081,0.161c0.125,0.151,0.237,0.31,0.336,0.479
		h0.002c0.034,0.058,0.067,0.121,0.098,0.181c0.27,0.522,0.438,1.107,0.438,1.735c0,0.325-0.054,0.627-0.128,0.913
		c-0.16,0.638-0.456,1.173-0.722,1.548l-0.055,0.047c-0.144,0.071-0.213,0.135-0.28,0.266v0.133l-0.065,0.045
		c-0.673,0.479-1.401,0.719-2.214,0.747l-0.001,0.002c-0.056,0.003-0.104,0.013-0.154,0.013c-0.055,0.002-0.114,0.005-0.174,0.005
		c-0.638,0-1.223-0.159-1.744-0.419v0.988H6.92v-0.989c-1.23-0.608-2.066-1.835-2.066-3.298H4.774v1.295
		c0,0.35-0.218,0.677-0.51,0.895c0.587,1.114,1.589,1.978,2.797,2.393l-0.048-0.292h0.001l0.049,0.293
		c0.491,0.169,1.009,0.277,1.555,0.282l0.001-0.002c0.013,0,0.022,0.002,0.037,0.002c0.772,0,1.558-0.203,2.397-0.621l0.22-0.11
		v0.246c0.023,0.009,0.061,0.045,0.08,0.108L12.67,13.143 M7.378,2.499v0.184H7.377L7.378,2.499L7.378,2.499z M7.47,2.954v0.001
		L7.195,3.047L7.47,2.954z M7.742,2.956V2.954h0.184l0.091-0.091l0.458-0.091l0.183,0.182L8.655,2.955L8.474,2.773L8.017,2.864
		L7.926,2.956H7.742z M8.41,3.016l0.004,0.001l-0.123,0.03L8.41,3.016z M9.295,3.047l0.09-0.183l0,0L9.295,3.047z M12.854,4.782
		l-0.22,0.273l0.218-0.273H12.854z M12.307,4.599v0.183l-0.002,0V4.599H12.307z"/>
	<path fill="#85A640" d="M2.266,5.525h0.515C2.827,5.4,2.85,5.272,2.905,5.146C2.851,5.271,2.828,5.399,2.782,5.525h0.021v3.107
		c0,0.501,0.432,0.836,0.834,0.836c0.083,0,0.165-0.025,0.246-0.058c0-0.001,0-0.001-0.001-0.002
		c0.046-0.016,0.086-0.039,0.13-0.065C3.72,8.704,3.544,8.001,3.544,7.246c0-0.188,0.035-0.366,0.054-0.548
		c0.013-0.121,0.015-0.247,0.037-0.364C3.615,6.452,3.613,6.577,3.6,6.698C3.579,6.88,3.544,7.059,3.544,7.246
		c0,0.752,0.175,1.458,0.468,2.098c0.045-0.029,0.089-0.058,0.13-0.09C4.331,9.091,4.47,8.865,4.47,8.633V7.341V5.608h0.815
		c0-0.001,0-0.001,0-0.001h0.192h0.151h1.167h0.783c0.499,0,0.833-0.432,0.833-0.835c0-0.098-0.026-0.462-0.258-0.675L8.109,4.144
		v0.181H8.108V4.143l0.045-0.046C8.068,4.019,7.953,3.968,7.798,3.955C7.775,3.954,7.766,3.938,7.742,3.938h-0.35L7.378,3.961H7.283
		H7.195V3.959h0.088h0.094l0.015-0.022h-0.04H7.195H7c0,0-0.001,0-0.001,0.001h-2.02C4.713,4.234,4.487,4.565,4.295,4.917
		c0.191-0.353,0.418-0.684,0.684-0.98H4.806h-0.2c0,0,0,0,0,0.001H4.552V2.328V0.748c0-0.498-0.431-0.834-0.834-0.834
		S2.884,0.25,2.884,0.748v3.108h-3.191c-0.5,0-0.834,0.432-0.834,0.833c0,0.406,0.428,0.835,0.834,0.835h2.573
		C2.266,5.525,2.266,5.525,2.266,5.525z M8.199,4.416l0.091-0.09h0.001L8.199,4.416z M8.016,4.325L8.016,4.325L7.742,4.599
		L8.016,4.325z M3.18,4.781c0.089-0.182,0.182-0.365,0.274-0.457C3.362,4.416,3.269,4.599,3.18,4.781L2.905,5.055L3.18,4.781z
		 M3.462,6.562L3.462,6.562C3.483,6.403,3.496,6.246,3.53,6.092v0C3.496,6.245,3.483,6.404,3.462,6.562z M3.794,6.287
		c-0.06,0.311-0.096,0.63-0.096,0.959c0-0.33,0.036-0.65,0.096-0.96L3.727,6.15l0.068,0.135C3.794,6.286,3.794,6.286,3.794,6.287z"
		/>
</g>
</svg>
