<?xml version="1.0" encoding="utf-8"?>
<!-- Generator: Adobe Illustrator 17.1.0, SVG Export Plug-In . SVG Version: 6.00 Build 0)  -->
<!DOCTYPE svg PUBLIC "-//W3C//DTD SVG 1.1//EN" "http://www.w3.org/Graphics/SVG/1.1/DTD/svg11.dtd">
<svg version="1.1" id="Layer_1" xmlns="http://www.w3.org/2000/svg" xmlns:xlink="http://www.w3.org/1999/xlink" x="0px" y="0px"
	 viewBox="0 0 12.5 10" enable-background="new 0 0 12.5 10" xml:space="preserve">
<path fill="#59B8E6" d="M11.4,5c0.1-0.2,0.1-0.3,0-0.4l-0.8-0.8H5.6C5.2,3,4.4,2.6,3.5,2.6C2.1,2.6,1,3.7,1,5s1.1,2.4,2.4,2.4
	c0.9,0,1.7-0.5,2.1-1.2h1l0.8-0.8L8,6l0.5-0.6l0.6,0.6l0.5-0.7L10.3,6L11.4,5 M3.1,5c0,0.3-0.3,0.7-0.7,0.7S1.8,5.3,1.8,5
	s0.3-0.7,0.7-0.7S3.1,4.7,3.1,5"/>
</svg>
