<?xml version="1.0" encoding="utf-8"?>
<!-- Generator: Adobe Illustrator 17.1.0, SVG Export Plug-In . SVG Version: 6.00 Build 0)  -->
<!DOCTYPE svg PUBLIC "-//W3C//DTD SVG 1.1//EN" "http://www.w3.org/Graphics/SVG/1.1/DTD/svg11.dtd">
<svg version="1.1" id="Layer_1" xmlns="http://www.w3.org/2000/svg" xmlns:xlink="http://www.w3.org/1999/xlink" x="0px" y="0px"
	 viewBox="0 0 30 15" enable-background="new 0 0 30 15" xml:space="preserve">
<path fill="#414141" d="M27.3,7.6c0.3-0.4,0.3-0.6-0.1-1l-2-2H13.4c-1-1.8-2.9-2.9-5.1-2.9c-3.2,0-5.8,2.6-5.8,5.8s2.6,5.8,5.8,5.8
	c2.2,0,4.1-1.1,5.1-2.9h2.4l1.9-1.9l1.5,1.5l1.3-1.4l1.5,1.5l1.3-1.6l1.5,1.5L27.3,7.6 M7.4,7.5C7.3,8.3,6.7,9.1,5.8,9.1
	S4.3,8.3,4.3,7.5S5,5.9,5.9,5.9S7.4,6.7,7.4,7.5"/>
</svg>
