<?xml version="1.0" encoding="utf-8"?>
<!-- Generator: Adobe Illustrator 17.1.0, SVG Export Plug-In . SVG Version: 6.00 Build 0)  -->
<!DOCTYPE svg PUBLIC "-//W3C//DTD SVG 1.1//EN" "http://www.w3.org/Graphics/SVG/1.1/DTD/svg11.dtd">
<svg version="1.1" id="Layer_1" xmlns="http://www.w3.org/2000/svg" xmlns:xlink="http://www.w3.org/1999/xlink" x="0px" y="0px"
	 viewBox="0 0 28 28" enable-background="new 0 0 28 28" xml:space="preserve">
<path fill="#FFFFFF" d="M28,12.1C28,5.4,22.6,0,15.9,0S3.7,5.4,3.7,12.1c0,2.1,0.6,4.1,1.5,5.9c-0.2,0.1-0.3,0.2-0.5,0.3l-3.5,3.5
	c-1.5,1.3-1.6,3.5-0.3,5s3.5,1.6,5,0.3c0.1-0.1,0.2-0.2,0.3-0.3l3.5-3.5c0.1-0.2,0.2-0.3,0.3-0.5c1.8,0.9,3.7,1.5,5.9,1.5
	C22.6,24.3,28,18.9,28,12.1 M24.6,12.1c0,4.9-3.8,8.7-8.7,8.7c-2.1,0-3.9-0.7-5.4-1.9l-0.1-0.1c0-0.1-0.1-0.1-0.1-0.2
	C10,18.3,9.7,18,9.3,17.8c-1.3-1.5-2.1-3.5-2.1-5.7c0-4.9,3.8-8.7,8.7-8.7C20.7,3.4,24.6,7.3,24.6,12.1L24.6,12.1z"/>
</svg>
