<?xml version="1.0" encoding="utf-8"?>
<!-- Generator: Adobe Illustrator 17.1.0, SVG Export Plug-In . SVG Version: 6.00 Build 0)  -->
<!DOCTYPE svg PUBLIC "-//W3C//DTD SVG 1.1//EN" "http://www.w3.org/Graphics/SVG/1.1/DTD/svg11.dtd">
<svg version="1.1" id="Layer_1" xmlns="http://www.w3.org/2000/svg" xmlns:xlink="http://www.w3.org/1999/xlink" x="0px" y="0px"
	 viewBox="0 0 24 24" enable-background="new 0 0 24 24" xml:space="preserve">
<path fill="#FFFFFF" d="M24,10.4C24,4.6,19.4,0,13.6,0S3.2,4.6,3.2,10.4c0,1.8,0.5,3.5,1.3,5c-0.2,0.1-0.2,0.2-0.4,0.2l-3,3
	c-1.3,1.1-1.4,3-0.2,4.3c1.1,1.3,3,1.4,4.3,0.2C5.2,23.1,5.3,23,5.4,23l3-3c0.1-0.2,0.2-0.2,0.2-0.4c1.5,0.8,3.2,1.3,5,1.3
	C19.4,20.8,24,16.2,24,10.4 M21.1,10.4c0,4.2-3.3,7.4-7.4,7.4c-1.8,0-3.4-0.6-4.6-1.6l-0.1-0.1c0-0.1-0.1-0.1-0.1-0.2
	c-0.2-0.3-0.5-0.6-0.8-0.7c-1.1-1.3-1.8-3-1.8-4.9c0-4.2,3.3-7.4,7.4-7.4C17.8,2.9,21.1,6.2,21.1,10.4L21.1,10.4z"/>
</svg>
