<?xml version="1.0" encoding="utf-8"?>
<!-- Generator: Adobe Illustrator 17.1.0, SVG Export Plug-In . SVG Version: 6.00 Build 0)  -->
<!DOCTYPE svg PUBLIC "-//W3C//DTD SVG 1.1//EN" "http://www.w3.org/Graphics/SVG/1.1/DTD/svg11.dtd">
<svg version="1.1" id="Layer_1" xmlns="http://www.w3.org/2000/svg" xmlns:xlink="http://www.w3.org/1999/xlink" x="0px" y="0px"
	 viewBox="0 0 300 150" enable-background="new 0 0 300 150" xml:space="preserve">
<g>
	<g>
		<path fill="#2D2C2C" d="M98.5,69.4c-1.1,0.5-3.1,1.2-6,1.2c-5.5,0-8.8-3.9-8.8-9.6c0-6,3.3-10.2,8.5-10.2c5.9,0,7.3,5.4,7.3,8.7
			c0,0.7,0,1.1-0.1,1.6H86.5c0,5.3,3,7.2,6.4,7.2c2.4,0,3.8-0.5,5-1L98.5,69.4z M96.6,58.9c0-2.6-1-5.9-4.8-5.9
			c-3.5,0-5,3.3-5.3,5.9H96.6z"/>
	</g>
	<g>
		<path fill="#2D2C2C" d="M117.9,51.2l-6.3,9.2l6.4,9.8h-3.3l-2.9-4.4c-0.7-1.1-1.3-2.2-2-3.4h-0.1c-0.6,1.2-1.3,2.2-2,3.4l-2.8,4.4
			h-3.2l6.5-9.7l-6.2-9.3h3.2l2.8,4.2c0.7,1.1,1.3,2.1,1.9,3.2h0.1c0.6-1.1,1.3-2.2,1.9-3.2l2.7-4.2
			C114.6,51.2,117.9,51.2,117.9,51.2z"/>
	</g>
	<g>
		<path fill="#2D2C2C" d="M124.7,54.4c1.3-2.3,3.5-3.7,6.5-3.7c4.5,0,7.7,3.9,7.7,9.7c0,7-4.1,10.2-8.3,10.2c-2.5,0-4.6-1.1-5.7-3
			h-0.1V78H122V57.3c0-2.5-0.1-4.4-0.1-6.1h2.6L124.7,54.4L124.7,54.4z M124.9,62.6c0,3.7,2.8,5.6,5.3,5.6c3.7,0,5.8-3.2,5.8-7.7
			c0-3.9-2-7.4-5.7-7.4c-3.2,0-5.4,3.1-5.4,5.9V62.6z"/>
	</g>
	<g>
		<path fill="#2D2C2C" d="M150,53.7c-0.3,0-0.6-0.1-1-0.1c-3.1,0-4.7,3.1-4.7,6.3v10.3h-2.9V56.9c0-2,0-3.9-0.1-5.7h2.5l0.1,3.7h0.1
			c0.8-2.4,2.8-4.1,5.2-4.1c0.3,0,0.6,0.1,0.9,0.1v2.8H150z"/>
	</g>
	<g>
		<path fill="#2D2C2C" d="M166.5,69.4c-1.1,0.5-3.1,1.2-6,1.2c-5.5,0-8.8-3.9-8.8-9.6c0-6,3.3-10.2,8.5-10.2c5.9,0,7.3,5.4,7.3,8.7
			c0,0.7,0,1.1-0.1,1.6h-12.9c0,5.3,3,7.2,6.4,7.2c2.4,0,3.8-0.5,5-1L166.5,69.4z M164.7,58.9c0-2.6-1-5.9-4.8-5.9
			c-3.5,0-5,3.3-5.3,5.9H164.7z"/>
	</g>
	<g>
		<path fill="#2D2C2C" d="M181.2,54.1c-0.7-0.5-2-1.1-3.7-1.1c-2.1,0-3.2,1.3-3.2,2.8c0,1.6,1.1,2.4,3.5,3.4
			c3.1,1.3,4.8,2.9,4.8,5.7c0,3.4-2.6,5.6-6.7,5.6c-1.9,0-3.7-0.5-5-1.3l0.8-2.2c1,0.6,2.6,1.3,4.3,1.3c2.5,0,3.8-1.4,3.8-3.1
			c0-1.8-1-2.8-3.5-3.8c-3.2-1.3-4.8-3.1-4.8-5.4c0-3,2.4-5.4,6.2-5.4c1.8,0,3.3,0.5,4.4,1.1L181.2,54.1z"/>
	</g>
	<g>
		<path fill="#2D2C2C" d="M198.9,54.1c-0.7-0.5-2-1.1-3.7-1.1c-2.1,0-3.2,1.3-3.2,2.8c0,1.6,1.1,2.4,3.5,3.4
			c3.1,1.3,4.8,2.9,4.8,5.7c0,3.4-2.6,5.6-6.7,5.6c-1.9,0-3.7-0.5-5-1.3l0.8-2.2c1,0.6,2.6,1.3,4.3,1.3c2.5,0,3.8-1.4,3.8-3.1
			c0-1.8-1-2.8-3.5-3.8c-3.2-1.3-4.8-3.1-4.8-5.4c0-3,2.4-5.4,6.2-5.4c1.8,0,3.3,0.5,4.4,1.1L198.9,54.1z"/>
	</g>
	<g>
		<path fill="#2D2C2C" d="M94.3,97.5h-2.9V86.3c0-3.1-1.1-5.8-4.4-5.8c-2.2,0-5,1.8-5,5.3v11.7h-2.9V69.7H82v11.8h0.1
			c1.3-2.1,3.6-3.4,5.9-3.4s6.3,1.4,6.3,7.9V97.5z"/>
	</g>
	<g>
		<path fill="#2D2C2C" d="M114.5,87.9c0,7.1-4.7,10.1-8.9,10.1c-4.9,0-8.6-3.7-8.6-9.8c0-6.5,4-10.1,8.9-10.1
			C111.1,78.1,114.5,82.1,114.5,87.9z M105.8,80.3c-4.1,0-5.8,4-5.8,7.7c0,4.2,2.3,7.6,5.7,7.6c3.4,0,5.9-3.4,5.9-7.7
			C111.6,84.6,109.9,80.3,105.8,80.3z"/>
	</g>
	<g>
		<path fill="#2D2C2C" d="M132.3,78.5l-7.2,19h-2.7l-7-19h3.1l3.8,11c0.6,1.7,1.1,3.3,1.5,4.9h0.1c0.4-1.6,1-3.2,1.6-4.9l3.8-11
			H132.3z"/>
	</g>
	<g>
		<path fill="#2D2C2C" d="M151.7,97.5h-2.9V69.7h2.9V97.5z"/>
	</g>
	<g>
		<path fill="#2D2C2C" d="M168.7,93c0,1.6,0,3.2,0.3,4.5h-2.6l-0.3-2.4H166c-1,1.5-2.9,2.9-5.6,2.9c-3.6,0-5.5-2.6-5.5-5.4
			c0-4.6,4-7,11-7c0-1.6,0-5.2-4.3-5.2c-1.6,0-3.3,0.5-4.6,1.4l-0.7-2c1.5-1,3.7-1.6,5.8-1.6c5.4,0,6.8,3.8,6.8,7.6V93H168.7z
			 M165.9,87.7c-3.6,0-8.1,0.5-8.1,4.5c0,2.4,1.5,3.5,3.3,3.5c2.8,0,4.8-2.2,4.8-4.5V87.7z"/>
	</g>
	<g>
		<path fill="#2D2C2C" d="M190.8,97.5h-2.9V86.3c0-3.1-1.1-5.8-4.4-5.8c-2.5,0-5,2.1-5,5.4v11.6h-2.9V83.4c0-2-0.1-3.4-0.1-4.9h2.6
			l0.2,3.1h0.1c0.9-1.8,3.1-3.5,6.1-3.5c2.4,0,6.4,1.4,6.4,7.9v11.5H190.8z"/>
	</g>
	<g>
		<path fill="#2D2C2C" d="M208.3,96.7c-1.1,0.5-3.1,1.2-6,1.2c-5.5,0-8.8-3.9-8.8-9.6c0-6,3.3-10.2,8.5-10.2c5.9,0,7.3,5.4,7.3,8.7
			c0,0.7,0,1.1-0.1,1.6h-12.9c0,5.3,3,7.2,6.4,7.2c2.4,0,3.8-0.5,5-1L208.3,96.7z M206.5,86.2c0-2.6-1-5.9-4.8-5.9
			c-3.5,0-5,3.3-5.3,5.9H206.5z"/>
	</g>
	<g>
		<path fill="#2D2C2C" d="M223,81.4c-0.7-0.5-2-1.1-3.7-1.1c-2.1,0-3.2,1.3-3.2,2.8c0,1.6,1.1,2.4,3.5,3.4c3.1,1.3,4.8,2.9,4.8,5.7
			c0,3.4-2.6,5.6-6.7,5.6c-1.9,0-3.7-0.5-5-1.3l0.8-2.2c1,0.6,2.6,1.3,4.3,1.3c2.5,0,3.8-1.4,3.8-3.1c0-1.8-1-2.8-3.5-3.8
			c-3.2-1.3-4.8-3.1-4.8-5.4c0-3,2.4-5.4,6.2-5.4c1.8,0,3.3,0.5,4.4,1.1L223,81.4z"/>
	</g>
	<g>
		<path fill="#2D2C2C" d="M109.8,108.3c-0.3,0-0.6-0.1-1-0.1c-3.1,0-4.7,3.1-4.7,6.3v10.3h-2.9v-13.3c0-2,0-3.9-0.1-5.7h2.5l0.1,3.7
			h0.1c0.8-2.4,2.8-4.1,5.2-4.1c0.3,0,0.6,0.1,0.9,0.1L109.8,108.3L109.8,108.3z"/>
	</g>
	<g>
		<path fill="#2D2C2C" d="M125.3,120.3c0,1.6,0,3.2,0.3,4.5H123l-0.3-2.4h-0.1c-1,1.5-2.9,2.9-5.6,2.9c-3.6,0-5.5-2.6-5.5-5.4
			c0-4.6,4-7,11-7c0-1.6,0-5.2-4.3-5.2c-1.6,0-3.3,0.5-4.6,1.4l-0.7-2c1.5-1,3.7-1.6,5.8-1.6c5.4,0,6.8,3.8,6.8,7.6v7.2H125.3z
			 M122.5,115c-3.6,0-8.1,0.5-8.1,4.5c0,2.4,1.5,3.5,3.3,3.5c2.8,0,4.8-2.2,4.8-4.5C122.5,118.5,122.5,115,122.5,115z"/>
	</g>
	<g>
		<path fill="#2D2C2C" d="M133.6,102.5c-1.1,0-1.9-0.9-1.9-2s0.8-2,1.9-2c1.1,0,1.9,0.9,1.9,2C135.5,101.8,134.7,102.5,133.6,102.5z
			 M135.1,124.8h-2.9v-19h2.9V124.8z"/>
	</g>
	<g>
		<path fill="#2D2C2C" d="M142.6,124.8h-2.9V97h2.9V124.8z"/>
	</g>
	<g>
		<path fill="#2D2C2C" d="M87.6,42.3c-0.7,0.4-2.3,0.9-4.4,0.9c-4.7,0-7.8-3.3-7.8-8.3s3.3-8.7,8.4-8.7c1.8,0,3.3,0.5,3.9,0.9
			l-0.6,2c-0.7-0.4-1.8-0.8-3.4-0.8c-3.8,0-5.8,3-5.8,6.5c0,4,2.4,6.4,5.7,6.4c1.6,0,2.7-0.4,3.5-0.8L87.6,42.3z"/>
	</g>
	<g>
		<path fill="#2D2C2C" d="M105.5,34.6c0,6.1-4,8.7-7.7,8.7c-4.2,0-7.4-3.1-7.4-8.4c0-5.6,3.5-8.7,7.6-8.7
			C102.5,26.1,105.5,29.6,105.5,34.6z M98,28.1c-3.5,0-5,3.5-5,6.6c0,3.6,2,6.6,5,6.6s5-2.9,5-6.6C102.9,31.7,101.5,28.1,98,28.1z"
			/>
	</g>
	<g>
		<path fill="#2D2C2C" d="M121,38.5c0,1.7,0.1,3.1,0.1,4.4h-2.3l-0.1-2.6h-0.1c-0.8,1.3-2.4,2.9-5.2,2.9c-2.5,0-5.4-1.4-5.4-7v-9.7
			h2.5v9.2c0,3.2,0.9,5.4,3.7,5.4c1.9,0,4.3-1.6,4.3-4.4V26.5h2.5V38.5z"/>
	</g>
	<g>
		<path fill="#2D2C2C" d="M137.9,42.9h-2.5v-9.7c0-2.7-1-5-3.8-5c-2.1,0-4.3,1.8-4.3,4.7v10h-2.5V30.7c0-1.7-0.1-2.9-0.1-4.2h2.2
			l0.1,2.7h0.1c0.8-1.6,2.7-3,5.2-3c2,0,5.5,1.2,5.5,6.8v9.9H137.9z"/>
	</g>
	<g>
		<path fill="#2D2C2C" d="M142.1,23.6l2.5-0.8v3.8h4.2v2h-4.2v9.3c0,2.1,0.6,3.2,2.2,3.2c0.7,0,1.3-0.1,1.7-0.2l0.1,1.9
			c-0.5,0.2-1.4,0.4-2.4,0.4c-4,0-4.1-3.6-4.1-5.3v-9.4h-2.5v-2h2.5V23.6z"/>
	</g>
	<g>
		<path fill="#2D2C2C" d="M151.2,23.6c-1,0-1.6-0.7-1.6-1.7c0-0.9,0.7-1.7,1.7-1.7s1.6,0.7,1.6,1.7C152.9,23,152.2,23.6,151.2,23.6z
			 M152.5,42.9H150V26.5h2.5V42.9z"/>
	</g>
	<g>
		<path fill="#2D2C2C" d="M168,42.2c-0.9,0.5-2.6,1-5.1,1c-4.8,0-7.6-3.4-7.6-8.3c0-5.1,2.9-8.8,7.3-8.8c5,0,6.3,4.6,6.3,7.5
			c0,0.6,0,1-0.1,1.4h-11.1c0,4.5,2.6,6.2,5.5,6.2c2,0,3.3-0.4,4.3-0.8L168,42.2z M166.4,33.1c0-2.2-0.9-5.1-4.1-5.1
			c-3,0-4.3,2.9-4.6,5.1H166.4z"/>
	</g>
	<g>
		<path fill="#2D2C2C" d="M180.7,29c-0.6-0.4-1.7-1-3.2-1c-1.8,0-2.8,1.1-2.8,2.4c0,1.4,0.9,2.1,3,3c2.6,1.1,4.2,2.5,4.2,4.9
			c0,2.9-2.2,4.8-5.8,4.8c-1.6,0-3.2-0.5-4.3-1.1l0.7-1.9c0.9,0.5,2.3,1.1,3.7,1.1c2.2,0,3.3-1.2,3.3-2.6c0-1.5-0.9-2.4-3-3.2
			c-2.8-1.1-4.2-2.6-4.2-4.6c0-2.6,2-4.7,5.3-4.7c1.6,0,2.9,0.4,3.7,1L180.7,29z"/>
	</g>
	<g>
		<path fill="#2D2C2C" d="M241.9,53.8c0-2,0-4.7,1.8-6.5c1.1-1.1,2.5-1.5,3.8-1.5c1.1,0,1.9,0.2,2.4,0.5l-0.4,1.9
			c-0.5-0.2-1-0.4-1.9-0.4c-2.6,0-3.2,2.4-3.2,5v0.9h4v2h-4v14.4h-2.5V55.8h-2.2v-2H241.9z"/>
	</g>
	<g>
		<path fill="#2D2C2C" d="M261.8,69.5c-0.9,0.4-2.6,1-5.1,1c-4.8,0-7.6-3.4-7.6-8.2c0-5.1,2.9-8.8,7.3-8.8c5,0,6.3,4.6,6.3,7.5
			c0,0.6,0,1-0.1,1.4h-11.1c0,4.5,2.6,6.2,5.5,6.2c2,0,3.3-0.4,4.3-0.8L261.8,69.5z M260.2,60.4c0-2.2-0.9-5.1-4.1-5.1
			c-3,0-4.3,2.8-4.6,5.1H260.2z"/>
	</g>
	<g>
		<path fill="#2D2C2C" d="M274.3,55.9c-0.3,0-0.5-0.1-0.9-0.1c-2.7,0-4.1,2.7-4.1,5.4v8.9h-2.5V58.7c0-1.7,0-3.3-0.1-4.9h2.2L269,57
			h0.1c0.7-2,2.4-3.5,4.4-3.5c0.3,0,0.5,0.1,0.8,0.1V55.9z"/>
	</g>
	<g>
		<path fill="#2D2C2C" d="M284.4,55.9c-0.3,0-0.5-0.1-0.9-0.1c-2.7,0-4.1,2.7-4.1,5.4v8.9H277V58.7c0-1.7,0-3.3-0.1-4.9h2.2l0.1,3.2
			h0.1c0.7-2,2.4-3.5,4.4-3.5c0.3,0,0.5,0.1,0.8,0.1v2.3H284.4z"/>
	</g>
	<g>
		<path fill="#2D2C2C" d="M299.5,53.8l-4.4,11.6c-1.9,5.3-3.3,8.4-5.4,10.3c-1.4,1.3-2.7,1.8-3.3,1.9l-0.7-2.1
			c3.8-1.4,5.3-5.5,5.3-5.9c0-0.2-0.1-0.4-0.2-0.7L285,53.8h2.7l3.6,9.9c0.4,1.1,0.8,2.4,1,3.4h0.1c0.3-1,0.7-2.2,1-3.5l3.3-9.9
			L299.5,53.8L299.5,53.8z"/>
	</g>
	<g>
		<path fill="#2D2C2C" d="M193.5,111c-0.6-0.4-1.7-1-3.2-1c-1.8,0-2.8,1.1-2.8,2.4c0,1.4,0.9,2.1,3,3c2.6,1.1,4.2,2.5,4.2,4.9
			c0,2.9-2.2,4.8-5.8,4.8c-1.6,0-3.2-0.4-4.3-1.1l0.7-1.9c0.9,0.5,2.3,1.1,3.7,1.1c2.2,0,3.3-1.2,3.3-2.6c0-1.5-0.9-2.4-3-3.2
			c-2.8-1.1-4.2-2.6-4.2-4.6c0-2.6,2-4.7,5.3-4.7c1.6,0,2.9,0.5,3.7,1L193.5,111z"/>
	</g>
	<g>
		<path fill="#2D2C2C" d="M201.5,105.5l2.5-0.8v3.8h4.2v1.9H204v9.5c0,2.1,0.6,3.2,2.2,3.2c0.7,0,1.3-0.1,1.7-0.2l0.2,1.9
			c-0.5,0.2-1.4,0.4-2.4,0.4c-4,0-4.1-3.6-4.1-5.3v-9.4H199v-1.9h2.5V105.5z"/>
	</g>
	<g>
		<path fill="#2D2C2C" d="M216.9,110.6c-0.3,0-0.5-0.1-0.9-0.1c-2.7,0-4.1,2.7-4.1,5.4v8.9h-2.5v-11.5c0-1.7,0-3.3-0.1-4.9h2.2
			l0.1,3.1h0.1c0.7-2,2.4-3.5,4.4-3.5c0.3,0,0.5,0.1,0.7,0.1v2.5H216.9z"/>
	</g>
	<g>
		<path fill="#2D2C2C" d="M231.2,124.2c-0.9,0.4-2.6,1-5.1,1c-4.8,0-7.6-3.4-7.6-8.2c0-5.1,2.9-8.8,7.3-8.8c5,0,6.3,4.6,6.3,7.5
			c0,0.6,0,1-0.1,1.4h-11.1c0,4.5,2.6,6.2,5.5,6.2c2,0,3.3-0.4,4.3-0.8L231.2,124.2z M229.6,115.1c0-2.2-0.9-5.1-4.1-5.1
			c-3,0-4.3,2.8-4.6,5.1H229.6z"/>
	</g>
	<g>
		<path fill="#2D2C2C" d="M247.8,124.2c-0.9,0.4-2.6,1-5.1,1c-4.8,0-7.6-3.4-7.6-8.2c0-5.1,2.9-8.8,7.3-8.8c5,0,6.3,4.6,6.3,7.5
			c0,0.6,0,1-0.1,1.4h-11.1c0,4.5,2.6,6.2,5.5,6.2c2,0,3.3-0.4,4.3-0.8L247.8,124.2z M246.2,115.1c0-2.2-0.9-5.1-4.1-5.1
			c-3,0-4.3,2.8-4.6,5.1H246.2z"/>
	</g>
	<g>
		<path fill="#2D2C2C" d="M253.5,105.5l2.5-0.8v3.8h4.2v1.9H256v9.5c0,2.1,0.6,3.2,2.2,3.2c0.7,0,1.3-0.1,1.7-0.2l0.1,1.9
			c-0.5,0.2-1.4,0.4-2.4,0.4c-4,0-4.1-3.6-4.1-5.3v-9.4H251v-1.9h2.5V105.5z"/>
	</g>
	<g>
		<path fill="#2D2C2C" d="M269.1,111c-0.6-0.4-1.7-1-3.2-1c-1.8,0-2.8,1.1-2.8,2.4c0,1.4,0.9,2.1,3,3c2.6,1.1,4.2,2.5,4.2,4.9
			c0,2.9-2.2,4.8-5.8,4.8c-1.6,0-3.2-0.4-4.3-1.1l0.7-1.9c0.9,0.5,2.3,1.1,3.7,1.1c2.2,0,3.3-1.2,3.3-2.6c0-1.5-0.9-2.4-3-3.2
			c-2.8-1.1-4.2-2.6-4.2-4.6c0-2.6,2-4.7,5.3-4.7c1.6,0,2.9,0.5,3.8,1L269.1,111z"/>
	</g>
	<g>
		<path fill="#2D2C2C" d="M74.9,8.8c0.6-1.1,1.6-1.7,3.1-1.7c2.2,0,3.8,1.9,3.8,4.8c0,3.4-2.1,5-4,5c-1.4,0-2.3-0.5-3-1.7h-0.1
			l-0.1,1.5h-1.2c0-0.6,0.1-1.6,0.1-2.3V2.9h1.4L74.9,8.8L74.9,8.8z M74.8,13c0,1.4,1,2.7,2.6,2.7c1.8,0,2.8-1.6,2.8-3.8
			c0-2-1-3.7-2.8-3.7c-1.6,0-2.7,1.5-2.7,2.9L74.8,13L74.8,13z"/>
	</g>
	<g>
		<path fill="#2D2C2C" d="M83.7,5.6c-0.5,0-0.9-0.4-0.9-1c0-0.5,0.4-1,0.9-1c0.6,0,0.9,0.4,0.9,1C84.7,5.2,84.3,5.6,83.7,5.6z
			 M84.5,16.6H83V7.3h1.4L84.5,16.6L84.5,16.6z"/>
	</g>
	<g>
		<path fill="#2D2C2C" d="M94,16.6h-1.7L89.1,12l-0.9,1v3.6h-1.4V2.9h1.4v8.7l0,0c0.2-0.3,0.5-0.7,0.8-1l2.8-3.3h1.7L90,11.1
			L94,16.6z"/>
	</g>
	<g>
		<path fill="#2D2C2C" d="M102,16.2c-0.5,0.3-1.5,0.6-2.9,0.6c-2.7,0-4.4-1.9-4.4-4.7c0-2.9,1.6-5,4.2-5c2.9,0,3.6,2.6,3.6,4.3
			c0,0.3,0,0.6,0,0.8h-6.4c0,2.6,1.5,3.6,3.2,3.6c1.2,0,1.9-0.2,2.5-0.5L102,16.2z M101.1,11c0-1.3-0.5-2.9-2.3-2.9
			c-1.7,0-2.5,1.6-2.6,2.9H101.1z"/>
	</g>
	<g>
		<path fill="#2D2C2C" d="M116.1,16.3c-0.4,0.2-1.3,0.5-2.5,0.5c-2.7,0-4.4-1.9-4.4-4.8s1.9-5,4.8-5c1,0,1.9,0.3,2.2,0.5l-0.4,1.1
			c-0.4-0.2-1-0.5-1.9-0.5c-2.2,0-3.3,1.7-3.3,3.7c0,2.3,1.4,3.7,3.2,3.7c0.9,0,1.6-0.3,2-0.5L116.1,16.3z"/>
	</g>
	<g>
		<path fill="#2D2C2C" d="M125,16.2c-0.5,0.3-1.5,0.6-2.9,0.6c-2.7,0-4.4-1.9-4.4-4.7c0-2.9,1.6-5,4.2-5c2.9,0,3.6,2.6,3.6,4.3
			c0,0.3,0,0.6,0,0.8h-6.4c0,2.6,1.5,3.6,3.2,3.6c1.2,0,1.9-0.2,2.5-0.5L125,16.2z M124.1,11c0-1.3-0.5-2.9-2.3-2.9
			c-1.7,0-2.5,1.6-2.6,2.9H124.1z"/>
	</g>
	<g>
		<path fill="#2D2C2C" d="M135.5,16.6h-1.4v-5.5c0-1.5-0.5-2.9-2.2-2.9c-1.2,0-2.5,1-2.5,2.7v5.7H128V9.7c0-1,0-1.7-0.1-2.4h1.3
			l0.1,1.5l0,0c0.5-0.9,1.5-1.7,3-1.7c1.2,0,3.2,0.7,3.2,3.9V16.6z"/>
	</g>
	<g>
		<path fill="#2D2C2C" d="M142.1,8.7c-0.3-0.2-1-0.5-1.8-0.5c-1,0-1.6,0.6-1.6,1.4s0.5,1.2,1.7,1.7c1.5,0.6,2.4,1.4,2.4,2.8
			c0,1.7-1.3,2.8-3.3,2.8c-0.9,0-1.8-0.3-2.5-0.6l0.4-1.1c0.5,0.3,1.3,0.6,2.1,0.6c1.3,0,1.9-0.7,1.9-1.5c0-0.9-0.5-1.4-1.7-1.9
			c-1.6-0.6-2.4-1.5-2.4-2.6c0-1.5,1.2-2.7,3.1-2.7c0.9,0,1.6,0.3,2.1,0.6L142.1,8.7z"/>
	</g>
	<g>
		<path fill="#2D2C2C" d="M153.6,14.1c0,1,0.1,1.8,0.1,2.5h-1.3l-0.1-1.5h-0.1c-0.4,0.7-1.4,1.7-3,1.7c-1.4,0-3.1-0.8-3.1-4V7.3h1.4
			v5.3c0,1.8,0.5,3.1,2.1,3.1c1.1,0,2.4-0.9,2.4-2.5V7.3h1.4v6.8C153.4,14.1,153.6,14.1,153.6,14.1z"/>
	</g>
	<g>
		<path fill="#2D2C2C" d="M160.3,8.7c-0.3-0.2-1-0.5-1.8-0.5c-1,0-1.6,0.6-1.6,1.4s0.5,1.2,1.7,1.7c1.5,0.6,2.4,1.4,2.4,2.8
			c0,1.7-1.3,2.8-3.3,2.8c-0.9,0-1.8-0.3-2.5-0.6l0.4-1.1c0.5,0.3,1.3,0.6,2.1,0.6c1.3,0,1.9-0.7,1.9-1.5c0-0.9-0.5-1.4-1.7-1.9
			c-1.6-0.6-2.4-1.5-2.4-2.6c0-1.5,1.2-2.7,3.1-2.7c0.9,0,1.6,0.3,2.1,0.6L160.3,8.7z"/>
	</g>
	<g>
		<path fill="#2D2C2C" d="M175.6,16.3c-0.4,0.2-1.3,0.5-2.5,0.5c-2.7,0-4.4-1.9-4.4-4.8s1.9-5,4.8-5c1,0,1.9,0.3,2.2,0.5l-0.4,1.1
			c-0.4-0.2-1-0.5-1.9-0.5c-2.2,0-3.3,1.7-3.3,3.7c0,2.3,1.4,3.7,3.2,3.7c0.9,0,1.6-0.3,2-0.5L175.6,16.3z"/>
	</g>
	<g>
		<path fill="#2D2C2C" d="M178.6,5.6c-0.5,0-0.9-0.4-0.9-1c0-0.5,0.4-1,0.9-1c0.6,0,0.9,0.4,0.9,1S179.1,5.6,178.6,5.6z M179.3,16.6
			h-1.4V7.3h1.4V16.6z"/>
	</g>
	<g>
		<path fill="#2D2C2C" d="M182,5.6l1.4-0.5v2.2h2.4v1.1h-2.4v5.4c0,1.2,0.4,1.8,1.3,1.8c0.4,0,0.7-0.1,1-0.1l0.1,1.1
			c-0.3,0.1-0.8,0.2-1.4,0.2c-2.3,0-2.3-2.1-2.3-3.1V8.4h-1.4V7.3h1.4V5.6H182z"/>
	</g>
	<g>
		<path fill="#2D2C2C" d="M193.5,7.3l-2.5,6.6c-1.1,3-1.9,4.8-3.1,5.9c-0.8,0.7-1.6,1-1.9,1.1l-0.4-1.2c2.2-0.8,3-3.2,3-3.4
			c0-0.1,0-0.2-0.1-0.4l-3.3-8.6h1.6l2,5.7c0.2,0.7,0.4,1.4,0.6,2h0.1c0.2-0.6,0.4-1.3,0.6-2l1.9-5.6L193.5,7.3L193.5,7.3z"/>
	</g>
	<g>
		<path fill="#2D2C2C" d="M223.8,16.3c-0.4,0.2-1.3,0.5-2.5,0.5c-2.7,0-4.4-1.9-4.4-4.8s1.9-5,4.8-5c1,0,1.9,0.3,2.2,0.5l-0.4,1.1
			c-0.4-0.2-1-0.5-1.9-0.5c-2.2,0-3.3,1.7-3.3,3.7c0,2.3,1.4,3.7,3.2,3.7c0.9,0,1.6-0.3,2-0.5L223.8,16.3z"/>
	</g>
	<g>
		<path fill="#2D2C2C" d="M234,11.9c0,3.5-2.3,5-4.4,5c-2.4,0-4.3-1.8-4.3-4.8c0-3.2,2-5,4.4-5C232.3,7.1,234,9,234,11.9z
			 M229.7,8.2c-2,0-2.9,2-2.9,3.8c0,2.1,1.1,3.8,2.8,3.8s2.9-1.7,2.9-3.8C232.6,10.3,231.8,8.2,229.7,8.2z"/>
	</g>
	<g>
		<path fill="#2D2C2C" d="M248.5,16.6H247v-5.4c0-1.8-0.7-3-2.1-3c-1.1,0-2.2,1.1-2.2,2.5v5.9h-1.4v-5.7c0-1.5-0.6-2.6-2-2.6
			c-1.2,0-2.3,1.2-2.3,2.7v5.7h-1.4v-7c0-1,0-1.6-0.1-2.4h1.3l0.1,1.5h0.1c0.5-0.9,1.4-1.7,2.8-1.7c1.2,0,2.2,0.8,2.6,1.9l0,0
			c0.6-1.1,1.6-1.9,3-1.9c1.1,0,3,0.7,3,3.9L248.5,16.6L248.5,16.6z"/>
	</g>
	<g>
		<path fill="#2D2C2C" d="M262.9,16.6h-1.4v-5.4c0-1.8-0.7-3-2.1-3c-1.1,0-2.2,1.1-2.2,2.5v5.9h-1.4v-5.7c0-1.5-0.6-2.6-2-2.6
			c-1.2,0-2.3,1.2-2.3,2.7v5.7h-1.4v-7c0-1,0-1.6-0.1-2.4h1.3l0.1,1.5h0.1c0.5-0.9,1.4-1.7,2.8-1.7c1.2,0,2.2,0.8,2.6,1.9l0,0
			c0.6-1.1,1.6-1.9,3-1.9c1.1,0,3,0.7,3,3.9V16.6z"/>
	</g>
	<g>
		<path fill="#2D2C2C" d="M272,14.1c0,1,0.1,1.8,0.1,2.5h-1.3l-0.1-1.5h-0.1c-0.4,0.7-1.4,1.7-3,1.7c-1.4,0-3.1-0.8-3.1-4V7.3h1.4
			v5.3c0,1.8,0.5,3.1,2.1,3.1c1.1,0,2.4-0.9,2.4-2.5V7.3h1.4v6.8C271.8,14.1,272,14.1,272,14.1z"/>
	</g>
	<g>
		<path fill="#2D2C2C" d="M281.8,16.6h-1.4v-5.5c0-1.5-0.5-2.9-2.2-2.9c-1.2,0-2.5,1-2.5,2.7v5.7h-1.4V9.7c0-1,0-1.7-0.1-2.4h1.3
			l0.1,1.5l0,0c0.5-0.9,1.5-1.7,3-1.7c1.2,0,3.2,0.7,3.2,3.9V16.6z"/>
	</g>
	<g>
		<path fill="#2D2C2C" d="M284.7,5.6c-0.5,0-0.9-0.4-0.9-1c0-0.5,0.4-1,0.9-1c0.6,0,0.9,0.4,0.9,1S285.2,5.6,284.7,5.6z M285.4,16.6
			H284V7.3h1.4V16.6z"/>
	</g>
	<g>
		<path fill="#2D2C2C" d="M288.1,5.6l1.4-0.5v2.2h2.4v1.1h-2.4v5.4c0,1.2,0.4,1.8,1.3,1.8c0.4,0,0.7-0.1,1-0.1l0.1,1.1
			c-0.3,0.1-0.8,0.2-1.4,0.2c-2.3,0-2.3-2.1-2.3-3.1V8.4h-1.4V7.3h1.4V5.6H288.1z"/>
	</g>
	<g>
		<path fill="#2D2C2C" d="M299.6,7.3l-2.5,6.6c-1.1,3-1.9,4.8-3.1,5.9c-0.8,0.7-1.6,1-1.9,1.1l-0.4-1.2c2.2-0.8,3-3.2,3-3.4
			c0-0.1,0-0.2-0.1-0.4l-3.3-8.6h1.6l2,5.7c0.2,0.7,0.4,1.4,0.6,2h0.1c0.2-0.6,0.4-1.3,0.6-2l1.9-5.6L299.6,7.3L299.6,7.3z"/>
	</g>
	<g>
		<path fill="#2D2C2C" d="M7.4,42.5C7,42.7,6,43.1,4.8,43.1c-2.7,0-4.4-1.9-4.4-4.8c0-2.9,1.9-5,4.8-5c1,0,1.9,0.3,2.2,0.5l-0.3,1.1
			c-0.4-0.2-1-0.5-1.9-0.5c-2.2,0-3.3,1.7-3.3,3.7c0,2.3,1.4,3.7,3.2,3.7c0.9,0,1.6-0.3,2-0.5L7.4,42.5z"/>
	</g>
	<g>
		<path fill="#2D2C2C" d="M17.6,38.1c0,3.5-2.3,5-4.4,5c-2.4,0-4.3-1.8-4.3-4.8c0-3.2,2-5,4.4-5C15.9,33.3,17.6,35.3,17.6,38.1z
			 M13.3,34.4c-2,0-2.9,2-2.9,3.8c0,2.1,1.1,3.8,2.8,3.8c1.7,0,2.9-1.7,2.9-3.8C16.1,36.5,15.3,34.4,13.3,34.4z"/>
	</g>
	<g>
		<path fill="#2D2C2C" d="M26.8,42.9h-1.4v-5.5c0-1.5-0.5-2.9-2.2-2.9c-1.2,0-2.5,1-2.5,2.7v5.7h-1.4v-7c0-1,0-1.7-0.1-2.4h1.3
			l0.1,1.5l0,0c0.5-0.9,1.5-1.7,3-1.7c1.2,0,3.2,0.7,3.2,3.9V42.9z"/>
	</g>
	<g>
		<path fill="#2D2C2C" d="M35.2,42.5c-0.4,0.2-1.3,0.5-2.5,0.5c-2.7,0-4.4-1.9-4.4-4.8c0-2.9,1.9-5,4.8-5c1,0,1.9,0.3,2.2,0.5
			l-0.4,1.2c-0.4-0.2-1-0.5-1.9-0.5c-2.2,0-3.3,1.7-3.3,3.7c0,2.3,1.4,3.7,3.2,3.7c0.9,0,1.6-0.3,2-0.5L35.2,42.5z"/>
	</g>
	<g>
		<path fill="#2D2C2C" d="M44.1,42.5c-0.5,0.3-1.5,0.6-2.9,0.6c-2.7,0-4.4-1.9-4.4-4.7c0-2.9,1.6-5,4.2-5c2.9,0,3.6,2.6,3.6,4.3
			c0,0.3,0,0.6,0,0.8h-6.4c0,2.6,1.5,3.6,3.2,3.6c1.2,0,1.9-0.2,2.5-0.5L44.1,42.5z M43.2,37.3c0-1.3-0.5-2.9-2.3-2.9
			c-1.7,0-2.5,1.6-2.6,2.9H43.2z"/>
	</g>
	<g>
		<path fill="#2D2C2C" d="M51.4,34.7c-0.2,0-0.3,0-0.5,0c-1.5,0-2.3,1.5-2.3,3.1v5.1h-1.4v-6.6c0-1,0-1.9-0.1-2.8h1.3l0.1,1.8h0.1
			c0.4-1.2,1.4-2,2.5-2c0.2,0,0.3,0,0.4,0.1L51.4,34.7L51.4,34.7z"/>
	</g>
	<g>
		<path fill="#2D2C2C" d="M60.5,42.9h-1.4v-5.5c0-1.5-0.5-2.9-2.2-2.9c-1.2,0-2.5,1-2.5,2.7v5.7H53v-7c0-1,0-1.7-0.1-2.4h1.3
			l0.1,1.5l0,0c0.5-0.9,1.5-1.7,3-1.7c1.2,0,3.2,0.7,3.2,3.9V42.9z"/>
	</g>
	<g>
		<path fill="#2D2C2C" d="M8.5,97.5H7.1V92c0-1.5-0.5-2.8-2.2-2.8c-1.1,0-2.5,0.9-2.5,2.6v5.7H1.1V83.8h1.4v5.8l0,0
			c0.6-1,1.7-1.7,2.9-1.7c1.1,0,3.1,0.7,3.1,3.9V97.5z"/>
	</g>
	<g>
		<path fill="#2D2C2C" d="M11.4,86.5c-0.5,0-0.9-0.4-0.9-1c0-0.5,0.4-1,0.9-1c0.6,0,0.9,0.4,0.9,1C12.4,86.2,12,86.5,11.4,86.5z
			 M12.1,97.5h-1.4v-9.3h1.4V97.5z"/>
	</g>
	<g>
		<path fill="#2D2C2C" d="M22.1,88.2C22,88.8,22,89.6,22,90.7v5.5c0,1.6,0,5.4-4.5,5.4c-1.1,0-2.2-0.3-2.9-0.7l0.4-1.1
			c0.6,0.4,1.5,0.7,2.6,0.7c1.7,0,3-0.9,3-3.4v-1.2l0,0c-0.5,0.9-1.5,1.6-2.9,1.6c-2.2,0-3.8-2-3.8-4.6c0-3.2,2-5,4-5
			c1.6,0,2.4,0.9,2.8,1.6l0,0l0.1-1.4h1.3V88.2z M20.5,91.8c0-1.6-1.2-2.7-2.5-2.7c-1.6,0-2.8,1.5-2.8,3.7c0,2,1,3.6,2.8,3.6
			c1.1,0,2.5-0.8,2.5-2.7V91.8z"/>
	</g>
	<g>
		<path fill="#2D2C2C" d="M31.6,97.5h-1.4V92c0-1.5-0.5-2.8-2.2-2.8c-1.1,0-2.5,0.9-2.5,2.6v5.7h-1.4V83.8h1.4v5.8l0,0
			c0.6-1,1.7-1.7,2.9-1.7s3.1,0.7,3.1,3.9v5.7L31.6,97.5L31.6,97.5z"/>
	</g>
	<g>
		<path fill="#2D2C2C" d="M45.7,88.2l-3,9.4h-1.3L40,92.8c-0.3-1.1-0.6-2-0.8-3.1h-0.1c-0.2,1.1-0.5,2.1-0.9,3.1l-1.6,4.7h-1.3
			l-2.8-9.4H34l1.3,4.9c0.3,1,0.5,2,0.7,3h0.1c0.2-0.9,0.5-1.9,0.8-2.9l1.6-4.9h1.2l1.5,4.8c0.3,1.1,0.6,2.1,0.8,3h0.1
			c0.2-0.9,0.4-1.9,0.7-3l1.4-4.9h1.5L45.7,88.2L45.7,88.2z"/>
	</g>
	<g>
		<path fill="#2D2C2C" d="M52.2,95.3c0,0.8,0,1.6,0.1,2.2H51l-0.1-1.2h-0.1c-0.5,0.7-1.4,1.4-2.8,1.4c-1.8,0-2.7-1.3-2.7-2.7
			c0-2.2,2-3.5,5.4-3.4c0-0.8,0-2.6-2.1-2.6c-0.8,0-1.6,0.2-2.3,0.7l-0.3-1c0.8-0.5,1.8-0.8,2.8-0.8c2.6,0,3.3,1.9,3.3,3.7
			L52.2,95.3L52.2,95.3z M50.8,92.7c-1.8,0-4,0.3-4,2.2c0,1.2,0.8,1.7,1.6,1.7c1.4,0,2.4-1.1,2.4-2.2V92.7z"/>
	</g>
	<g>
		<path fill="#2D2C2C" d="M62.8,88.2l-2.5,6.6c-1.1,3-1.9,4.8-3.1,5.9c-0.8,0.7-1.6,1-1.9,1.1l-0.4-1.2c2.2-0.8,3-3.2,3-3.4
			c0-0.1,0-0.2-0.1-0.4l-3.3-8.6h1.6l2,5.7c0.2,0.7,0.4,1.4,0.6,2h0.1c0.2-0.6,0.4-1.3,0.6-2l1.9-5.6L62.8,88.2L62.8,88.2z"/>
	</g>
	<g>
		<path fill="#2D2C2C" d="M2.4,117.1c0.7-1.1,1.7-1.8,3.2-1.8c2.2,0,3.8,1.9,3.8,4.8c0,3.4-2,5-4.1,5c-1.2,0-2.3-0.6-2.8-1.5l0,0
			v5.1H1.1v-10.2c0-1.2,0-2.2-0.1-3h1.3L2.4,117.1L2.4,117.1z M2.5,121.1c0,1.8,1.4,2.8,2.6,2.8c1.8,0,2.8-1.6,2.8-3.8
			c0-1.9-1-3.7-2.8-3.7c-1.6,0-2.7,1.5-2.7,2.9v1.8L2.5,121.1L2.5,121.1z"/>
	</g>
	<g>
		<path fill="#2D2C2C" d="M12.1,124.8h-1.4v-13.7h1.4V124.8z"/>
	</g>
	<g>
		<path fill="#2D2C2C" d="M20.6,122.6c0,0.8,0,1.6,0.1,2.2h-1.3l-0.1-1.2h-0.1c-0.5,0.7-1.4,1.4-2.8,1.4c-1.8,0-2.7-1.3-2.7-2.7
			c0-2.2,2-3.5,5.4-3.4c0-0.8,0-2.6-2.1-2.6c-0.8,0-1.6,0.2-2.3,0.7l-0.3-1c0.8-0.5,1.8-0.8,2.8-0.8c2.6,0,3.3,1.9,3.3,3.7v3.7
			L20.6,122.6L20.6,122.6z M19.2,120c-1.8,0-4,0.3-4,2.2c0,1.2,0.8,1.7,1.6,1.7c1.4,0,2.4-1.1,2.4-2.2V120z"/>
	</g>
	<g>
		<path fill="#2D2C2C" d="M30.4,124.5c-0.4,0.2-1.3,0.5-2.5,0.5c-2.7,0-4.4-1.9-4.4-4.8s1.9-5,4.8-5c1,0,1.9,0.3,2.2,0.5l-0.4,1.1
			c-0.4-0.2-1-0.5-1.9-0.5c-2.2,0-3.3,1.7-3.3,3.7c0,2.3,1.4,3.7,3.2,3.7c0.9,0,1.6-0.3,2-0.5L30.4,124.5z"/>
	</g>
	<g>
		<path fill="#2D2C2C" d="M39.3,124.4c-0.5,0.3-1.5,0.6-2.9,0.6c-2.7,0-4.4-1.9-4.4-4.7c0-2.9,1.6-5,4.2-5c2.9,0,3.6,2.6,3.6,4.3
			c0,0.3,0,0.6,0,0.8h-6.4c0,2.6,1.5,3.6,3.2,3.6c1.2,0,1.9-0.2,2.5-0.5L39.3,124.4z M38.4,119.3c0-1.3-0.5-2.9-2.3-2.9
			c-1.7,0-2.5,1.6-2.6,2.9H38.4z"/>
	</g>
	<g>
		<path fill="#2D2C2C" d="M46.7,116.9c-0.3-0.2-1-0.5-1.8-0.5c-1,0-1.6,0.6-1.6,1.4s0.5,1.2,1.7,1.7c1.5,0.6,2.4,1.4,2.4,2.8
			c0,1.7-1.3,2.8-3.3,2.8c-0.9,0-1.8-0.3-2.5-0.6l0.4-1.1c0.5,0.3,1.3,0.6,2.1,0.6c1.3,0,1.9-0.7,1.9-1.5c0-0.9-0.5-1.4-1.7-1.9
			c-1.6-0.6-2.4-1.5-2.4-2.6c0-1.5,1.2-2.7,3.1-2.7c0.9,0,1.6,0.3,2.1,0.6L46.7,116.9z"/>
	</g>
	<g>
		<path fill="#2D2C2C" d="M152.1,116.7c-0.2,0-0.3,0-0.5,0c-1.5,0-2.3,1.5-2.3,3.1v5.1h-1.4v-6.5c0-1,0-1.9-0.1-2.8h1.3l0.1,1.8h0.1
			c0.4-1.2,1.4-2,2.5-2c0.2,0,0.3,0,0.4,0.1v1.2L152.1,116.7L152.1,116.7z"/>
	</g>
	<g>
		<path fill="#2D2C2C" d="M161.7,120.1c0,3.5-2.3,5-4.4,5c-2.4,0-4.3-1.8-4.3-4.8c0-3.2,2-5,4.4-5
			C160,115.3,161.7,117.2,161.7,120.1z M157.4,116.4c-2,0-2.9,2-2.9,3.8c0,2.1,1.1,3.8,2.8,3.8s2.9-1.7,2.9-3.8
			C160.2,118.5,159.4,116.4,157.4,116.4z"/>
	</g>
	<g>
		<path fill="#2D2C2C" d="M169.5,122.6c0,0.8,0,1.6,0.1,2.2h-1.3l-0.1-1.2h-0.1c-0.5,0.7-1.4,1.4-2.8,1.4c-1.8,0-2.7-1.3-2.7-2.7
			c0-2.2,2-3.5,5.4-3.4c0-0.8,0-2.6-2.1-2.6c-0.8,0-1.6,0.2-2.3,0.7l-0.3-1c0.8-0.5,1.8-0.8,2.8-0.8c2.6,0,3.3,1.9,3.3,3.7v3.7
			L169.5,122.6L169.5,122.6z M168.1,120c-1.8,0-4,0.3-4,2.2c0,1.2,0.8,1.7,1.6,1.7c1.4,0,2.4-1.1,2.4-2.2V120z"/>
	</g>
	<g>
		<path fill="#2D2C2C" d="M180.6,122.5c0,0.8,0,1.7,0.1,2.3h-1.3l-0.1-1.6h-0.1c-0.5,1-1.5,1.8-3.1,1.8c-2.2,0-3.8-1.9-3.8-4.8
			c0-3.2,1.9-5,4-5c1.4,0,2.3,0.7,2.7,1.4l0,0V111h1.4v11.5L180.6,122.5L180.6,122.5z M179.2,119.2c0-1.9-1.3-2.8-2.5-2.8
			c-1.8,0-2.8,1.6-2.8,3.8c0,2,0.9,3.7,2.8,3.7c1.5,0,2.6-1.4,2.6-2.8v-1.9L179.2,119.2L179.2,119.2z"/>
	</g>
	<g>
		<path fill="#2D2C2C" d="M278.4,113.8l1.4-0.5v2.2h2.4v1.1h-2.4v5.4c0,1.2,0.4,1.8,1.3,1.8c0.4,0,0.7-0.1,1-0.1l0.1,1.1
			c-0.3,0.1-0.8,0.2-1.4,0.2c-2.3,0-2.3-2.1-2.3-3.1v-5.4H277v-1.1h1.4V113.8z"/>
	</g>
	<g>
		<path fill="#2D2C2C" d="M289,122.6c0,0.8,0,1.6,0.1,2.2h-1.3l-0.1-1.2h-0.1c-0.5,0.7-1.4,1.4-2.8,1.4c-1.8,0-2.7-1.3-2.7-2.7
			c0-2.2,2-3.5,5.4-3.4c0-0.8,0-2.6-2.1-2.6c-0.8,0-1.6,0.2-2.3,0.7l-0.3-1c0.8-0.5,1.8-0.8,2.8-0.8c2.6,0,3.3,1.9,3.3,3.7v3.7
			L289,122.6L289,122.6z M287.6,120c-1.8,0-4,0.3-4,2.2c0,1.2,0.8,1.7,1.6,1.7c1.4,0,2.4-1.1,2.4-2.2V120z"/>
	</g>
	<g>
		<path fill="#2D2C2C" d="M298.6,115.5v0.9l-4.3,5.8c-0.4,0.5-0.7,0.9-1.1,1.4l0,0h5.4v1.2h-7.2v-0.9l4.3-5.9
			c0.4-0.5,0.7-0.9,1.1-1.4l0,0h-5v-1.2L298.6,115.5L298.6,115.5z"/>
	</g>
	<g>
		<path fill="#2D2C2C" d="M1.4,135.2l1.4-0.5v2.2h2.4v1.1H2.8v5.4c0,1.2,0.4,1.8,1.3,1.8c0.4,0,0.7-0.1,1-0.1l0.1,1.1
			c-0.3,0.1-0.8,0.2-1.4,0.2c-2.3,0-2.3-2.1-2.3-3.1v-5.4H0v-1h1.4V135.2z"/>
	</g>
	<g>
		<path fill="#2D2C2C" d="M10.2,138.1c-0.2,0-0.3,0-0.5,0c-1.5,0-2.3,1.5-2.3,3.1v5.1H5.9v-6.5c0-1,0-1.9-0.1-2.8h1.3l0.1,1.8h0.1
			c0.4-1.2,1.4-2,2.5-2c0.2,0,0.3,0,0.4,0.1V138.1z"/>
	</g>
	<g>
		<path fill="#2D2C2C" d="M17.9,144c0,0.8,0,1.6,0.1,2.2h-1.3l-0.1-1.2h-0.1c-0.5,0.7-1.4,1.4-2.8,1.4c-1.8,0-2.7-1.3-2.7-2.7
			c0-2.2,2-3.5,5.4-3.4c0-0.8,0-2.6-2.1-2.6c-0.8,0-1.6,0.2-2.3,0.7l-0.3-1c0.8-0.5,1.8-0.8,2.8-0.8c2.6,0,3.3,1.9,3.3,3.7v3.7
			L17.9,144L17.9,144z M16.5,141.4c-1.8,0-4,0.3-4,2.2c0,1.2,0.8,1.7,1.6,1.7c1.4,0,2.4-1.1,2.4-2.2V141.4z"/>
	</g>
	<g>
		<path fill="#2D2C2C" d="M28.9,146.3h-1.4v-5.5c0-1.5-0.5-2.9-2.2-2.9c-1.2,0-2.5,1-2.5,2.7v5.7h-1.4v-6.9c0-1,0-1.7-0.1-2.4h1.3
			l0.1,1.5l0,0c0.5-0.9,1.5-1.7,3-1.7c1.2,0,3.2,0.7,3.2,3.9V146.3z"/>
	</g>
	<g>
		<path fill="#2D2C2C" d="M35.4,138.4c-0.3-0.2-1-0.5-1.8-0.5c-1,0-1.6,0.6-1.6,1.4c0,0.8,0.5,1.2,1.7,1.7c1.5,0.6,2.4,1.4,2.4,2.8
			c0,1.7-1.3,2.8-3.3,2.8c-0.9,0-1.8-0.3-2.5-0.6l0.4-1.1c0.5,0.3,1.3,0.6,2.1,0.6c1.3,0,1.9-0.7,1.9-1.5c0-0.9-0.5-1.4-1.7-1.9
			c-1.6-0.6-2.4-1.5-2.4-2.6c0-1.5,1.2-2.7,3.1-2.7c0.9,0,1.6,0.3,2.1,0.6L35.4,138.4z"/>
	</g>
	<g>
		<path fill="#2D2C2C" d="M40.3,135.3c-0.5,0-0.9-0.4-0.9-1c0-0.5,0.4-1,0.9-1c0.6,0,0.9,0.4,0.9,1
			C41.3,134.9,40.9,135.3,40.3,135.3z M41.1,146.3h-1.4v-9.4h1.4V146.3z"/>
	</g>
	<g>
		<path fill="#2D2C2C" d="M43.8,135.2l1.4-0.5v2.2h2.4v1.1h-2.4v5.4c0,1.2,0.4,1.8,1.3,1.8c0.4,0,0.7-0.1,1-0.1l0.1,1.1
			c-0.3,0.1-0.8,0.2-1.4,0.2c-2.3,0-2.3-2.1-2.3-3.1v-5.4h-1.4v-1h1.4L43.8,135.2L43.8,135.2z"/>
	</g>
	<g>
		<path fill="#2D2C2C" d="M7.9,15.6c0,0.3,0,0.7,0,1H7.3v-0.7l0,0c-0.2,0.4-0.7,0.8-1.3,0.8c-0.9,0-1.7-0.8-1.7-2.1
			c0-1.4,0.8-2.2,1.8-2.2c0.6,0,1,0.3,1.2,0.6l0,0v-2.4h0.6V15.6z M7.2,14.2c0-0.8-0.6-1.2-1.1-1.2c-0.8,0-1.2,0.7-1.2,1.7
			c0,0.9,0.4,1.6,1.2,1.6c0.7,0,1.1-0.6,1.1-1.2C7.2,15.1,7.2,14.2,7.2,14.2z"/>
	</g>
	<g>
		<path fill="#2D2C2C" d="M14.4,16.6h-0.6v-2.4c0-0.8-0.3-1.3-0.9-1.3c-0.5,0-1,0.5-1,1.1v2.6h-0.6v-2.5c0-0.7-0.3-1.1-0.9-1.1
			c-0.5,0-1,0.5-1,1.2v2.5H8.8v-3c0-0.4,0-0.7,0-1.1h0.5v0.7l0,0c0.2-0.4,0.6-0.8,1.2-0.8c0.5,0,0.9,0.3,1.1,0.8l0,0
			c0.3-0.5,0.7-0.8,1.3-0.8c0.5,0,1.3,0.3,1.3,1.7v2.4C14.2,16.6,14.4,16.6,14.4,16.6z"/>
	</g>
	<g>
		<path fill="#2D2C2C" d="M15.6,11.8c-0.2,0-0.4-0.2-0.4-0.4s0.2-0.4,0.4-0.4c0.2,0,0.4,0.2,0.4,0.4S15.8,11.8,15.6,11.8z
			 M15.9,16.6h-0.6v-4.1h0.6V16.6z"/>
	</g>
	<g>
		<path fill="#2D2C2C" d="M20.2,16.6h-0.6v-2.4c0-0.7-0.2-1.3-1-1.3c-0.5,0-1.1,0.4-1.1,1.2v2.5h-0.6v-3c0-0.4,0-0.7,0-1.1h0.6v0.7
			l0,0c0.2-0.4,0.7-0.8,1.3-0.8c0.5,0,1.4,0.3,1.4,1.7C20.2,14.1,20.2,16.6,20.2,16.6z"/>
	</g>
	<g>
		<path fill="#2D2C2C" d="M21.5,11.8c-0.2,0-0.4-0.2-0.4-0.4s0.2-0.4,0.4-0.4c0.2,0,0.4,0.2,0.4,0.4S21.7,11.8,21.5,11.8z
			 M21.8,16.6h-0.6v-4.1h0.6V16.6z"/>
	</g>
	<g>
		<path fill="#2D2C2C" d="M24.7,13.2c-0.2-0.1-0.4-0.2-0.8-0.2s-0.7,0.3-0.7,0.6c0,0.4,0.2,0.5,0.8,0.7c0.7,0.3,1,0.6,1,1.2
			c0,0.7-0.6,1.2-1.4,1.2c-0.4,0-0.8-0.1-1.1-0.3l0.2-0.5c0.2,0.1,0.6,0.3,0.9,0.3c0.5,0,0.8-0.3,0.8-0.7s-0.2-0.6-0.8-0.8
			c-0.7-0.3-1-0.7-1-1.2c0-0.6,0.5-1.2,1.3-1.2c0.4,0,0.7,0.1,0.9,0.2L24.7,13.2z"/>
	</g>
	<g>
		<path fill="#2D2C2C" d="M26.7,11.8l0.6-0.2v1h1.1v0.5h-1.1v2.4c0,0.5,0.2,0.8,0.6,0.8c0.2,0,0.3,0,0.4-0.1v0.5
			c-0.1,0.1-0.3,0.1-0.6,0.1c-1,0-1-0.9-1-1.3v-2.3h-0.6v-0.7h0.6V11.8z"/>
	</g>
	<g>
		<path fill="#2D2C2C" d="M30.5,13.1c-0.1,0-0.1,0-0.2,0c-0.7,0-1,0.7-1,1.4v2.2h-0.6v-2.9c0-0.4,0-0.8,0-1.2h0.5v0.8l0,0
			c0.2-0.5,0.6-0.9,1.1-0.9c0.1,0,0.1,0,0.2,0V13.1z"/>
	</g>
	<g>
		<path fill="#2D2C2C" d="M34,15.6c0,0.3,0,0.7,0.1,1h-0.6l-0.1-0.5l0,0c-0.2,0.3-0.6,0.6-1.2,0.6c-0.8,0-1.2-0.6-1.2-1.2
			c0-1,0.9-1.5,2.4-1.5c0-0.3,0-1.1-0.9-1.1c-0.4,0-0.7,0.1-1,0.3l-0.2-0.4c0.3-0.2,0.8-0.3,1.2-0.3c1.2,0,1.5,0.8,1.5,1.6V15.6z
			 M33.4,14.5c-0.8,0-1.7,0.1-1.7,1c0,0.5,0.3,0.8,0.7,0.8c0.6,0,1-0.5,1-1V14.5z"/>
	</g>
	<g>
		<path fill="#2D2C2C" d="M35.8,11.8l0.6-0.2v1h1.1v0.5h-1.1v2.4c0,0.5,0.2,0.8,0.6,0.8c0.2,0,0.3,0,0.4-0.1v0.5
			c-0.1,0.1-0.3,0.1-0.6,0.1c-1,0-1-0.9-1-1.3v-2.3h-0.6v-0.7h0.6V11.8z"/>
	</g>
	<g>
		<path fill="#2D2C2C" d="M38.1,11.8c-0.2,0-0.4-0.2-0.4-0.4s0.2-0.4,0.4-0.4s0.4,0.2,0.4,0.4S38.3,11.8,38.1,11.8z M38.4,16.6h-0.6
			v-4.1h0.6V16.6z"/>
	</g>
	<g>
		<path fill="#2D2C2C" d="M42.5,12.5L41,16.6h-0.6l-1.5-4.1h0.7l0.8,2.4c0.1,0.4,0.2,0.7,0.3,1.1l0,0c0.1-0.3,0.2-0.7,0.3-1.1
			l0.8-2.4H42.5z"/>
	</g>
	<g>
		<path fill="#2D2C2C" d="M46,16.4c-0.2,0.1-0.7,0.3-1.3,0.3c-1.2,0-1.9-0.8-1.9-2.1s0.7-2.2,1.8-2.2c1.3,0,1.6,1.2,1.6,1.9
			c0,0.1,0,0.2,0,0.3h-2.8c0,1.1,0.7,1.6,1.4,1.6c0.5,0,0.8-0.1,1.1-0.2L46,16.4z M45.6,14.2c0-0.6-0.2-1.3-1-1.3s-1.1,0.7-1.1,1.3
			H45.6z"/>
	</g>
	<g>
		<path fill="#2D2C2C" d="M54.9,15.6c0,0.3,0,0.7,0.1,1h-0.6l-0.1-0.5l0,0c-0.2,0.3-0.6,0.6-1.2,0.6c-0.8,0-1.2-0.6-1.2-1.2
			c0-1,0.9-1.5,2.4-1.5c0-0.3,0-1.1-0.9-1.1c-0.4,0-0.7,0.1-1,0.3l-0.2-0.4c0.3-0.2,0.8-0.3,1.2-0.3c1.2,0,1.5,0.8,1.5,1.6V15.6z
			 M54.3,14.5c-0.8,0-1.7,0.1-1.7,1c0,0.5,0.3,0.8,0.7,0.8c0.6,0,1-0.5,1-1V14.5z"/>
	</g>
	<g>
		<path fill="#2D2C2C" d="M58.4,13.1c-0.1,0-0.1,0-0.2,0c-0.7,0-1,0.7-1,1.4v2.2h-0.6v-2.9c0-0.4,0-0.8,0-1.2H57v0.8l0,0
			c0.2-0.5,0.6-0.9,1.1-0.9c0.1,0,0.1,0,0.2,0v0.6C58.3,13.1,58.4,13.1,58.4,13.1z"/>
	</g>
	<g>
		<path fill="#2D2C2C" d="M62.1,16.4c-0.2,0.1-0.7,0.3-1.3,0.3c-1.2,0-1.9-0.8-1.9-2.1s0.7-2.2,1.8-2.2c1.3,0,1.6,1.2,1.6,1.9
			c0,0.1,0,0.2,0,0.3h-2.8c0,1.1,0.7,1.6,1.4,1.6c0.5,0,0.8-0.1,1.1-0.2L62.1,16.4z M61.7,14.2c0-0.6-0.2-1.3-1-1.3
			s-1.1,0.7-1.1,1.3H61.7z"/>
	</g>
	<g>
		<path fill="#2D2C2C" d="M66.2,15.6c0,0.3,0,0.7,0.1,1h-0.6l-0.1-0.5l0,0c-0.2,0.3-0.6,0.6-1.2,0.6c-0.8,0-1.2-0.6-1.2-1.2
			c0-1,0.9-1.5,2.4-1.5c0-0.3,0-1.1-0.9-1.1c-0.4,0-0.7,0.1-1,0.3l-0.2-0.4c0.3-0.2,0.8-0.3,1.2-0.3c1.2,0,1.5,0.8,1.5,1.6V15.6z
			 M65.6,14.5c-0.8,0-1.7,0.1-1.7,1c0,0.5,0.3,0.8,0.7,0.8c0.6,0,1-0.5,1-1V14.5z"/>
	</g>
	<g>
		<path fill="#2D2C2C" d="M202.3,16.5c-0.2,0.1-0.6,0.2-1.1,0.2c-1.2,0-1.9-0.8-1.9-2.1s0.8-2.2,2.1-2.2c0.5,0,0.8,0.1,1,0.2
			l-0.2,0.5c-0.2-0.1-0.4-0.2-0.8-0.2c-0.9,0-1.4,0.8-1.4,1.6c0,1,0.6,1.6,1.4,1.6c0.4,0,0.7-0.1,0.9-0.2V16.5z"/>
	</g>
	<g>
		<path fill="#2D2C2C" d="M206.8,14.5c0,1.5-1,2.2-1.9,2.2c-1.1,0-1.9-0.8-1.9-2.1c0-1.4,0.9-2.2,1.9-2.2
			C206.1,12.4,206.8,13.3,206.8,14.5z M204.9,12.9c-0.9,0-1.3,0.9-1.3,1.7c0,0.9,0.5,1.6,1.2,1.6s1.3-0.7,1.3-1.7
			C206.2,13.8,205.8,12.9,204.9,12.9z"/>
	</g>
	<g>
		<path fill="#2D2C2C" d="M210.4,16.5c-0.2,0.1-0.6,0.2-1.1,0.2c-1.2,0-1.9-0.8-1.9-2.1s0.8-2.2,2.1-2.2c0.5,0,0.8,0.1,1,0.2
			l-0.2,0.5c-0.2-0.1-0.4-0.2-0.8-0.2c-0.9,0-1.4,0.8-1.4,1.6c0,1,0.6,1.6,1.4,1.6c0.4,0,0.7-0.1,0.9-0.2V16.5z"/>
	</g>
	<g>
		<path fill="#2D2C2C" d="M202.3,41.9c0,0.3,0,0.7,0,1h-0.6v-0.7l0,0c-0.2,0.4-0.7,0.8-1.3,0.8c-0.9,0-1.7-0.8-1.7-2.1
			c0-1.4,0.8-2.2,1.8-2.2c0.6,0,1,0.3,1.2,0.6l0,0v-2.4h0.6V41.9z M201.7,40.4c0-0.8-0.6-1.2-1.1-1.2c-0.8,0-1.2,0.7-1.2,1.7
			c0,0.9,0.4,1.6,1.2,1.6c0.7,0,1.1-0.6,1.1-1.2V40.4z"/>
	</g>
	<g>
		<path fill="#2D2C2C" d="M206.2,42.7c-0.2,0.1-0.7,0.3-1.3,0.3c-1.2,0-1.9-0.8-1.9-2.1s0.7-2.2,1.8-2.2c1.3,0,1.6,1.2,1.6,1.9
			c0,0.1,0,0.2,0,0.3h-2.8c0,1.1,0.7,1.6,1.4,1.6c0.5,0,0.8-0.1,1.1-0.2L206.2,42.7z M205.8,40.4c0-0.6-0.2-1.3-1-1.3
			c-0.7,0-1.1,0.7-1.1,1.3H205.8z"/>
	</g>
	<g>
		<path fill="#2D2C2C" d="M213.2,42.9h-0.6v-2.4c0-0.8-0.3-1.3-0.9-1.3c-0.5,0-1,0.5-1,1.1v2.6h-0.6v-2.5c0-0.7-0.3-1.1-0.9-1.1
			c-0.5,0-1,0.5-1,1.2v2.4h-0.6v-3c0-0.4,0-0.7,0-1.1h0.5v0.7l0,0c0.2-0.4,0.6-0.7,1.2-0.7c0.5,0,0.9,0.3,1.1,0.8l0,0
			c0.3-0.5,0.7-0.8,1.3-0.8c0.5,0,1.3,0.3,1.3,1.7v2.4H213.2z"/>
	</g>
	<g>
		<path fill="#2D2C2C" d="M217.5,40.8c0,1.5-1,2.2-1.9,2.2c-1.1,0-1.9-0.8-1.9-2.1c0-1.4,0.9-2.2,1.9-2.2
			C216.8,38.7,217.5,39.5,217.5,40.8z M215.6,39.2c-0.9,0-1.3,0.9-1.3,1.7c0,0.9,0.5,1.6,1.2,1.6s1.3-0.7,1.3-1.7
			C216.9,40.1,216.5,39.2,215.6,39.2z"/>
	</g>
	<g>
		<path fill="#2D2C2C" d="M221.7,38.8c0,0.3,0,0.6,0,1.1v2.4c0,0.7,0,2.3-2,2.3c-0.5,0-1-0.1-1.3-0.3l0.2-0.5
			c0.3,0.2,0.7,0.3,1.1,0.3c0.7,0,1.3-0.4,1.3-1.5v-0.5l0,0c-0.2,0.4-0.6,0.7-1.3,0.7c-1,0-1.7-0.9-1.7-2c0-1.4,0.9-2.2,1.8-2.2
			c0.7,0,1.1,0.4,1.2,0.7l0,0v-0.6L221.7,38.8L221.7,38.8z M221,40.4c0-0.7-0.5-1.2-1.1-1.2c-0.7,0-1.2,0.6-1.2,1.6
			c0,0.9,0.4,1.6,1.2,1.6c0.5,0,1.1-0.4,1.1-1.2V40.4z"/>
	</g>
	<g>
		<path fill="#2D2C2C" d="M224.5,39.3c-0.1,0-0.1,0-0.2,0c-0.7,0-1,0.7-1,1.4v2.2h-0.6V40c0-0.4,0-0.8,0-1.2h0.5v0.8l0,0
			c0.2-0.5,0.6-0.9,1.1-0.9c0.1,0,0.1,0,0.2,0V39.3z"/>
	</g>
	<g>
		<path fill="#2D2C2C" d="M228,41.9c0,0.3,0,0.7,0.1,1h-0.6l-0.1-0.5l0,0c-0.2,0.3-0.6,0.6-1.2,0.6c-0.8,0-1.2-0.6-1.2-1.2
			c0-1,0.9-1.5,2.4-1.5c0-0.3,0-1.1-0.9-1.1c-0.4,0-0.7,0.1-1,0.3l-0.1-0.4c0.3-0.2,0.8-0.3,1.2-0.3c1.2,0,1.5,0.8,1.5,1.6L228,41.9
			L228,41.9z M227.4,40.7c-0.8,0-1.7,0.1-1.7,1c0,0.5,0.3,0.8,0.7,0.8c0.6,0,1-0.5,1-1V40.7z"/>
	</g>
	<g>
		<path fill="#2D2C2C" d="M230.2,39.5c0.3-0.5,0.8-0.8,1.4-0.8c1,0,1.7,0.8,1.7,2.1c0,1.5-0.9,2.2-1.8,2.2c-0.5,0-1-0.2-1.2-0.7l0,0
			v2.2h-0.6v-4.4c0-0.5,0-0.9,0-1.3h0.6L230.2,39.5L230.2,39.5z M230.2,41.2c0,0.8,0.6,1.2,1.1,1.2c0.8,0,1.2-0.7,1.2-1.7
			c0-0.8-0.4-1.6-1.2-1.6c-0.7,0-1.2,0.7-1.2,1.3L230.2,41.2L230.2,41.2z"/>
	</g>
	<g>
		<path fill="#2D2C2C" d="M237.1,42.9h-0.6v-2.4c0-0.7-0.2-1.2-0.9-1.2c-0.5,0-1.1,0.4-1.1,1.1v2.5h-0.6v-6h0.6v2.5l0,0
			c0.3-0.5,0.8-0.7,1.3-0.7s1.4,0.3,1.4,1.7L237.1,42.9L237.1,42.9z"/>
	</g>
	<g>
		<path fill="#2D2C2C" d="M238.5,38.1c-0.2,0-0.4-0.2-0.4-0.4s0.2-0.4,0.4-0.4s0.4,0.2,0.4,0.4S238.7,38.1,238.5,38.1z M238.8,42.9
			h-0.6v-4.1h0.6V42.9z"/>
	</g>
	<g>
		<path fill="#2D2C2C" d="M242.5,42.7c-0.2,0.1-0.6,0.2-1.1,0.2c-1.2,0-1.9-0.8-1.9-2.1s0.8-2.2,2.1-2.2c0.5,0,0.8,0.1,1,0.2
			l-0.2,0.5c-0.2-0.1-0.4-0.2-0.8-0.2c-0.9,0-1.4,0.8-1.4,1.6c0,1,0.6,1.6,1.4,1.6c0.4,0,0.7-0.1,0.9-0.2V42.7z"/>
	</g>
	<g>
		<path fill="#2D2C2C" d="M259.7,41.9c0,0.3,0,0.7,0,1h-0.6v-0.7l0,0c-0.2,0.4-0.7,0.8-1.3,0.8c-0.9,0-1.7-0.8-1.7-2.1
			c0-1.4,0.8-2.2,1.8-2.2c0.6,0,1,0.3,1.2,0.6l0,0v-2.4h0.6V41.9z M259,40.4c0-0.8-0.6-1.2-1.1-1.2c-0.8,0-1.2,0.7-1.2,1.7
			c0,0.9,0.4,1.6,1.2,1.6c0.7,0,1.1-0.6,1.1-1.2V40.4z"/>
	</g>
	<g>
		<path fill="#2D2C2C" d="M263.6,42.7c-0.2,0.1-0.7,0.3-1.3,0.3c-1.2,0-1.9-0.8-1.9-2.1s0.7-2.2,1.8-2.2c1.3,0,1.6,1.2,1.6,1.9
			c0,0.1,0,0.2,0,0.3H261c0,1.1,0.7,1.6,1.4,1.6c0.5,0,0.8-0.1,1.1-0.2L263.6,42.7z M263.2,40.4c0-0.6-0.2-1.3-1-1.3
			c-0.7,0-1.1,0.7-1.1,1.3H263.2z"/>
	</g>
	<g>
		<path fill="#2D2C2C" d="M268.1,38.8l-1.6,4.1h-0.6l-1.5-4.1h0.7l0.8,2.4c0.1,0.4,0.2,0.7,0.3,1l0,0c0.1-0.3,0.2-0.7,0.3-1l0.8-2.4
			H268.1z"/>
	</g>
	<g>
		<path fill="#2D2C2C" d="M271.6,42.7c-0.2,0.1-0.7,0.3-1.3,0.3c-1.2,0-1.9-0.8-1.9-2.1s0.7-2.2,1.8-2.2c1.3,0,1.6,1.2,1.6,1.9
			c0,0.1,0,0.2,0,0.3H269c0,1.1,0.7,1.6,1.4,1.6c0.5,0,0.8-0.1,1.1-0.2L271.6,42.7z M271.2,40.4c0-0.6-0.2-1.3-1-1.3
			c-0.7,0-1.1,0.7-1.1,1.3H271.2z"/>
	</g>
	<g>
		<path fill="#2D2C2C" d="M273.6,42.9H273v-6h0.6V42.9z"/>
	</g>
	<g>
		<path fill="#2D2C2C" d="M278.1,40.8c0,1.5-1,2.2-1.9,2.2c-1,0-1.9-0.8-1.9-2.1c0-1.4,0.9-2.2,1.9-2.2
			C277.3,38.7,278.1,39.5,278.1,40.8z M276.2,39.2c-0.9,0-1.3,0.9-1.3,1.7c0,0.9,0.5,1.6,1.2,1.6s1.3-0.7,1.3-1.7
			C277.4,40.1,277.1,39.2,276.2,39.2z"/>
	</g>
	<g>
		<path fill="#2D2C2C" d="M279.5,39.5c0.3-0.5,0.8-0.8,1.4-0.8c1,0,1.7,0.8,1.7,2.1c0,1.5-0.9,2.2-1.8,2.2c-0.5,0-1-0.2-1.2-0.7l0,0
			v2.2H279v-4.4c0-0.5,0-0.9,0-1.3h0.6L279.5,39.5L279.5,39.5z M279.5,41.2c0,0.8,0.6,1.2,1.1,1.2c0.8,0,1.2-0.7,1.2-1.7
			c0-0.8-0.4-1.6-1.2-1.6c-0.7,0-1.2,0.7-1.2,1.3v0.8H279.5z"/>
	</g>
	<g>
		<path fill="#2D2C2C" d="M288.7,42.9h-0.6v-2.4c0-0.8-0.3-1.3-0.9-1.3c-0.5,0-1,0.5-1,1.1v2.6h-0.6v-2.5c0-0.7-0.3-1.1-0.9-1.1
			c-0.5,0-1,0.5-1,1.2v2.4h-0.6v-3c0-0.4,0-0.7,0-1.1h0.5v0.7l0,0c0.2-0.4,0.6-0.7,1.2-0.7c0.5,0,0.9,0.3,1.1,0.8l0,0
			c0.3-0.5,0.7-0.8,1.3-0.8c0.5,0,1.3,0.3,1.3,1.7v2.4H288.7z"/>
	</g>
	<g>
		<path fill="#2D2C2C" d="M292.5,42.7c-0.2,0.1-0.7,0.3-1.3,0.3c-1.2,0-1.9-0.8-1.9-2.1s0.7-2.2,1.8-2.2c1.3,0,1.6,1.2,1.6,1.9
			c0,0.1,0,0.2,0,0.3h-2.8c0,1.1,0.7,1.6,1.4,1.6c0.5,0,0.8-0.1,1.1-0.2L292.5,42.7z M292.1,40.4c0-0.6-0.2-1.3-1-1.3
			s-1.1,0.7-1.1,1.3H292.1z"/>
	</g>
	<g>
		<path fill="#2D2C2C" d="M297.1,42.9h-0.6v-2.4c0-0.7-0.2-1.3-1-1.3c-0.5,0-1.1,0.5-1.1,1.2v2.5h-0.6v-3c0-0.4,0-0.7,0-1.1h0.6v0.7
			l0,0c0.2-0.4,0.7-0.8,1.3-0.8c0.5,0,1.4,0.3,1.4,1.7L297.1,42.9L297.1,42.9z"/>
	</g>
	<g>
		<path fill="#2D2C2C" d="M298.3,38l0.6-0.2v1h1.1v0.5h-1.1v2.4c0,0.5,0.2,0.8,0.6,0.8c0.2,0,0.3,0,0.4-0.1v0.5
			c-0.1,0.1-0.3,0.1-0.6,0.1c-1,0-1-0.9-1-1.3v-2.3h-0.6v-0.5h0.6V38z"/>
	</g>
	<g>
		<path fill="#2D2C2C" d="M7.8,70.2H7.2v-2.4c0-0.7-0.2-1.3-1-1.3c-0.5,0-1.1,0.4-1.1,1.2v2.5H4.6v-3c0-0.4,0-0.7,0-1.1h0.6v0.7l0,0
			C5.4,66.4,5.9,66,6.5,66c0.5,0,1.4,0.3,1.4,1.7L7.8,70.2L7.8,70.2z"/>
	</g>
	<g>
		<path fill="#2D2C2C" d="M12,66.1l-1.6,4.1H9.8l-1.5-4.1H9l0.8,2.4c0.1,0.4,0.2,0.7,0.3,1.1l0,0c0.1-0.3,0.2-0.7,0.3-1.1l0.8-2.4
			C11.2,66.1,12,66.1,12,66.1z"/>
	</g>
	<g>
		<path fill="#2D2C2C" d="M12.9,65.4c-0.2,0-0.4-0.2-0.4-0.4c0-0.2,0.2-0.4,0.4-0.4c0.2,0,0.4,0.2,0.4,0.4
			C13.3,65.2,13.1,65.4,12.9,65.4z M13.2,70.2h-0.6v-4.1h0.6V70.2z"/>
	</g>
	<g>
		<path fill="#2D2C2C" d="M16.1,66.6c-0.1,0-0.1,0-0.2,0c-0.7,0-1,0.7-1,1.4v2.2h-0.6v-2.9c0-0.4,0-0.8,0-1.2h0.5v0.8l0,0
			c0.2-0.5,0.6-0.9,1.1-0.9c0.1,0,0.1,0,0.2,0V66.6z"/>
	</g>
	<g>
		<path fill="#2D2C2C" d="M20.4,68.1c0,1.5-1,2.2-1.9,2.2c-1,0-1.9-0.8-1.9-2.1c0-1.4,0.9-2.2,1.9-2.2C19.6,66,20.4,66.9,20.4,68.1z
			 M18.5,66.5c-0.9,0-1.3,0.9-1.3,1.7c0,0.9,0.5,1.6,1.2,1.6s1.3-0.7,1.3-1.7C19.7,67.4,19.4,66.5,18.5,66.5z"/>
	</g>
	<g>
		<path fill="#2D2C2C" d="M24.4,70.2h-0.6v-2.4c0-0.7-0.2-1.3-1-1.3c-0.5,0-1.1,0.4-1.1,1.2v2.5h-0.6v-3c0-0.4,0-0.7,0-1.1h0.6v0.7
			l0,0c0.2-0.4,0.7-0.8,1.3-0.8c0.5,0,1.4,0.3,1.4,1.7C24.4,67.7,24.4,70.2,24.4,70.2z"/>
	</g>
	<g>
		<path fill="#2D2C2C" d="M31,70.2h-0.6v-2.4c0-0.8-0.3-1.3-0.9-1.3c-0.5,0-1,0.5-1,1.1v2.6h-0.6v-2.5c0-0.7-0.3-1.1-0.9-1.1
			c-0.5,0-1,0.5-1,1.2v2.5h-0.6v-3c0-0.4,0-0.7,0-1.1H26v0.7l0,0c0.2-0.4,0.6-0.8,1.2-0.8c0.5,0,0.9,0.3,1.1,0.8l0,0
			c0.3-0.5,0.7-0.8,1.3-0.8c0.5,0,1.3,0.3,1.3,1.7v2.4H31z"/>
	</g>
	<g>
		<path fill="#2D2C2C" d="M34.8,70c-0.2,0.1-0.7,0.3-1.3,0.3c-1.2,0-1.9-0.8-1.9-2.1c0-1.3,0.7-2.2,1.8-2.2c1.3,0,1.6,1.2,1.6,1.9
			c0,0.1,0,0.2,0,0.3h-2.8c0,1.1,0.7,1.6,1.4,1.6c0.5,0,0.8-0.1,1.1-0.2L34.8,70z M34.4,67.8c0-0.6-0.2-1.3-1-1.3s-1.1,0.7-1.1,1.3
			H34.4z"/>
	</g>
	<g>
		<path fill="#2D2C2C" d="M39.4,70.2h-0.6v-2.4c0-0.7-0.2-1.3-1-1.3c-0.5,0-1.1,0.4-1.1,1.2v2.5h-0.6v-3c0-0.4,0-0.7,0-1.1h0.6v0.7
			l0,0c0.2-0.4,0.7-0.8,1.3-0.8c0.5,0,1.4,0.3,1.4,1.7C39.4,67.7,39.4,70.2,39.4,70.2z"/>
	</g>
	<g>
		<path fill="#2D2C2C" d="M40.6,65.4l0.6-0.2v1h1.1v0.5h-1.1v2.4c0,0.5,0.2,0.8,0.6,0.8c0.2,0,0.3,0,0.4-0.1v0.5
			c-0.1,0.1-0.3,0.1-0.6,0.1c-1,0-1-0.9-1-1.3v-2.3H40v-0.5h0.6V65.4z"/>
	</g>
	<g>
		<path fill="#2D2C2C" d="M45.3,69.2c0,0.3,0,0.7,0.1,1h-0.6l-0.1-0.5l0,0c-0.2,0.3-0.6,0.6-1.2,0.6c-0.8,0-1.2-0.6-1.2-1.2
			c0-1,0.9-1.5,2.4-1.5c0-0.3,0-1.1-0.9-1.1c-0.4,0-0.7,0.1-1,0.3l-0.2-0.4c0.3-0.2,0.8-0.3,1.2-0.3c1.2,0,1.5,0.8,1.5,1.6V69.2z
			 M44.7,68.1c-0.8,0-1.7,0.1-1.7,1c0,0.5,0.3,0.8,0.7,0.8c0.6,0,1-0.5,1-1V68.1z"/>
	</g>
	<g>
		<path fill="#2D2C2C" d="M47.5,70.2h-0.6v-6h0.6V70.2z"/>
	</g>
	<g>
		<path fill="#2D2C2C" d="M248.5,97.5h-0.6v-2.4c0-0.8-0.3-1.3-0.9-1.3c-0.5,0-1,0.5-1,1.1v2.6h-0.6V95c0-0.7-0.3-1.1-0.9-1.1
			c-0.5,0-1,0.5-1,1.2v2.5H243v-3c0-0.4,0-0.7,0-1.1h0.5v0.7l0,0c0.2-0.4,0.6-0.8,1.2-0.8c0.5,0,0.9,0.3,1.1,0.8l0,0
			c0.3-0.5,0.7-0.8,1.3-0.8c0.5,0,1.3,0.3,1.3,1.7L248.5,97.5L248.5,97.5z"/>
	</g>
	<g>
		<path fill="#2D2C2C" d="M252.9,95.4c0,1.5-1,2.2-1.9,2.2c-1.1,0-1.9-0.8-1.9-2.1c0-1.4,0.9-2.2,1.9-2.2
			C252.1,93.3,252.9,94.2,252.9,95.4z M251,93.8c-0.9,0-1.3,0.9-1.3,1.7c0,0.9,0.5,1.6,1.2,1.6s1.3-0.7,1.3-1.7
			C252.2,94.7,251.9,93.8,251,93.8z"/>
	</g>
	<g>
		<path fill="#2D2C2C" d="M257,96.5c0,0.3,0,0.7,0,1h-0.6v-0.7l0,0c-0.2,0.4-0.7,0.8-1.3,0.8c-0.9,0-1.7-0.8-1.7-2.1
			c0-1.4,0.8-2.2,1.8-2.2c0.6,0,1,0.3,1.2,0.6l0,0v-2.5h0.6V96.5z M256.4,95.1c0-0.8-0.6-1.2-1.1-1.2c-0.8,0-1.2,0.7-1.2,1.7
			c0,0.9,0.4,1.6,1.2,1.6c0.7,0,1.1-0.6,1.1-1.2V95.1z"/>
	</g>
	<g>
		<path fill="#2D2C2C" d="M260.9,97.3c-0.2,0.1-0.7,0.3-1.3,0.3c-1.2,0-1.9-0.8-1.9-2.1c0-1.3,0.7-2.2,1.8-2.2
			c1.3,0,1.6,1.2,1.6,1.9c0,0.1,0,0.2,0,0.3h-2.8c0,1.1,0.7,1.6,1.4,1.6c0.5,0,0.8-0.1,1.1-0.2L260.9,97.3z M260.5,95.1
			c0-0.6-0.2-1.3-1-1.3c-0.7,0-1.1,0.7-1.1,1.3H260.5z"/>
	</g>
	<g>
		<path fill="#2D2C2C" d="M262.9,97.5h-0.6v-6h0.6V97.5z"/>
	</g>
	<g>
		<path fill="#2D2C2C" d="M264.2,92.7c-0.2,0-0.4-0.2-0.4-0.4c0-0.2,0.2-0.4,0.4-0.4c0.2,0,0.4,0.2,0.4,0.4
			C264.6,92.5,264.4,92.7,264.2,92.7z M264.5,97.5h-0.6v-4.1h0.6V97.5z"/>
	</g>
	<g>
		<path fill="#2D2C2C" d="M268.8,97.5h-0.6v-2.4c0-0.7-0.2-1.3-1-1.3c-0.5,0-1.1,0.4-1.1,1.2v2.5h-0.6v-3c0-0.4,0-0.7,0-1.1h0.6v0.7
			l0,0c0.2-0.4,0.7-0.8,1.3-0.8c0.5,0,1.4,0.3,1.4,1.7L268.8,97.5L268.8,97.5z"/>
	</g>
	<g>
		<path fill="#2D2C2C" d="M273.1,93.4c0,0.3,0,0.6,0,1.1v2.4c0,0.7,0,2.3-1.9,2.3c-0.5,0-1-0.1-1.3-0.3l0.2-0.5
			c0.3,0.2,0.7,0.3,1.1,0.3c0.8,0,1.3-0.4,1.3-1.5v-0.5l0,0c-0.2,0.4-0.6,0.7-1.3,0.7c-1,0-1.7-0.9-1.7-2c0-1.4,0.9-2.2,1.8-2.2
			c0.7,0,1.1,0.4,1.2,0.7l0,0v-0.6L273.1,93.4L273.1,93.4z M272.4,95c0-0.7-0.5-1.2-1.1-1.2c-0.7,0-1.2,0.6-1.2,1.6
			c0,0.9,0.4,1.6,1.2,1.6c0.5,0,1.1-0.4,1.1-1.2V95z"/>
	</g>
	<g>
		<path fill="#2D2C2C" d="M288,94.1c0.3-0.5,0.8-0.8,1.4-0.8c1,0,1.7,0.8,1.7,2.1c0,1.5-0.9,2.2-1.8,2.2c-0.5,0-1-0.2-1.2-0.7l0,0
			v2.2h-0.6v-4.4c0-0.5,0-0.9,0-1.3h0.6L288,94.1L288,94.1z M288.1,95.9c0,0.8,0.6,1.2,1.1,1.2c0.8,0,1.2-0.7,1.2-1.7
			c0-0.8-0.4-1.6-1.2-1.6c-0.7,0-1.2,0.7-1.2,1.3v0.8H288.1z"/>
	</g>
	<g>
		<path fill="#2D2C2C" d="M295,96.5c0,0.3,0,0.7,0,1h-0.6v-0.7l0,0c-0.2,0.4-0.7,0.8-1.3,0.8c-0.9,0-1.7-0.8-1.7-2.1
			c0-1.4,0.8-2.2,1.8-2.2c0.6,0,1,0.3,1.2,0.6l0,0v-2.5h0.6V96.5z M294.4,95.1c0-0.8-0.6-1.2-1.1-1.2c-0.8,0-1.2,0.7-1.2,1.7
			c0,0.9,0.4,1.6,1.2,1.6c0.7,0,1.1-0.6,1.1-1.2V95.1z"/>
	</g>
	<g>
		<path fill="#2D2C2C" d="M298.7,96.5c0,0.3,0,0.7,0.1,1h-0.6l-0.1-0.5l0,0c-0.2,0.3-0.6,0.6-1.2,0.6c-0.8,0-1.2-0.6-1.2-1.2
			c0-1,0.9-1.5,2.4-1.5c0-0.3,0-1.1-0.9-1.1c-0.4,0-0.7,0.1-1,0.3l-0.2-0.4c0.3-0.2,0.8-0.3,1.2-0.3c1.2,0,1.5,0.8,1.5,1.6
			L298.7,96.5L298.7,96.5z M298.1,95.4c-0.8,0-1.7,0.1-1.7,1c0,0.5,0.3,0.8,0.7,0.8c0.6,0,1-0.5,1-1V95.4z"/>
	</g>
	<g>
		<path fill="#2D2C2C" d="M52.8,121.4c0.3-0.5,0.8-0.8,1.4-0.8c1,0,1.7,0.8,1.7,2.1c0,1.5-0.9,2.2-1.8,2.2c-0.5,0-1-0.2-1.2-0.7l0,0
			v2.2h-0.6V122c0-0.5,0-0.9,0-1.3h0.6L52.8,121.4L52.8,121.4z M52.9,123.2c0,0.8,0.6,1.2,1.1,1.2c0.8,0,1.2-0.7,1.2-1.7
			c0-0.8-0.4-1.6-1.2-1.6c-0.7,0-1.2,0.7-1.2,1.3v0.8L52.9,123.2L52.9,123.2z"/>
	</g>
	<g>
		<path fill="#2D2C2C" d="M60,122.8c0,1.5-1,2.2-1.9,2.2c-1,0-1.9-0.8-1.9-2.1c0-1.4,0.9-2.2,1.9-2.2C59.3,120.7,60,121.5,60,122.8z
			 M58.1,121.1c-0.9,0-1.3,0.9-1.3,1.7c0,0.9,0.5,1.6,1.2,1.6s1.3-0.7,1.3-1.7C59.4,122.1,59,121.1,58.1,121.1z"/>
	</g>
	<g>
		<path fill="#2D2C2C" d="M61.4,124.8h-0.6v-6h0.6V124.8z"/>
	</g>
	<g>
		<path fill="#2D2C2C" d="M62.7,120c-0.2,0-0.4-0.2-0.4-0.4c0-0.2,0.2-0.4,0.4-0.4s0.4,0.2,0.4,0.4C63.1,119.9,63,120,62.7,120z
			 M63,124.8h-0.6v-4.1H63V124.8z"/>
	</g>
	<g>
		<path fill="#2D2C2C" d="M66.8,124.7c-0.2,0.1-0.6,0.2-1.1,0.2c-1.2,0-1.9-0.8-1.9-2.1c0-1.3,0.8-2.2,2.1-2.2c0.5,0,0.8,0.1,1,0.2
			l-0.2,0.5c-0.2-0.1-0.4-0.2-0.8-0.2c-0.9,0-1.4,0.8-1.4,1.6c0,1,0.6,1.6,1.4,1.6c0.4,0,0.7-0.1,0.9-0.2V124.7z"/>
	</g>
	<g>
		<path fill="#2D2C2C" d="M70.9,120.8l-1.1,2.9c-0.5,1.3-0.8,2.1-1.3,2.6c-0.3,0.3-0.7,0.4-0.8,0.5l-0.2-0.5c1-0.4,1.3-1.4,1.3-1.5
			c0,0,0-0.1,0-0.2l-1.4-3.8h0.7l0.9,2.5c0.1,0.3,0.2,0.6,0.3,0.9l0,0c0.1-0.2,0.2-0.6,0.3-0.9l0.8-2.5H70.9z"/>
	</g>
	<g>
		<path fill="#2D2C2C" d="M74.3,121.4c0.3-0.5,0.8-0.8,1.4-0.8c1,0,1.7,0.8,1.7,2.1c0,1.5-0.9,2.2-1.8,2.2c-0.5,0-1-0.2-1.2-0.7l0,0
			v2.2h-0.6V122c0-0.5,0-0.9,0-1.3h0.6L74.3,121.4L74.3,121.4z M74.3,123.2c0,0.8,0.6,1.2,1.1,1.2c0.8,0,1.2-0.7,1.2-1.7
			c0-0.8-0.4-1.6-1.2-1.6c-0.7,0-1.2,0.7-1.2,1.3L74.3,123.2L74.3,123.2z"/>
	</g>
	<g>
		<path fill="#2D2C2C" d="M79.8,121.3c-0.1,0-0.1,0-0.2,0c-0.7,0-1,0.7-1,1.4v2.2H78V122c0-0.4,0-0.8,0-1.2h0.5v0.8l0,0
			c0.2-0.5,0.6-0.9,1.1-0.9c0.1,0,0.1,0,0.2,0C79.8,120.7,79.8,121.3,79.8,121.3z"/>
	</g>
	<g>
		<path fill="#2D2C2C" d="M80.9,120c-0.2,0-0.4-0.2-0.4-0.4c0-0.2,0.2-0.4,0.4-0.4c0.2,0,0.4,0.2,0.4,0.4
			C81.4,119.9,81.2,120,80.9,120z M81.3,124.8h-0.6v-4.1h0.6V124.8z"/>
	</g>
	<g>
		<path fill="#2D2C2C" d="M85.7,122.8c0,1.5-1,2.2-1.9,2.2c-1,0-1.9-0.8-1.9-2.1c0-1.4,0.9-2.2,1.9-2.2
			C85,120.7,85.7,121.5,85.7,122.8z M83.8,121.1c-0.9,0-1.3,0.9-1.3,1.7c0,0.9,0.5,1.6,1.2,1.6s1.3-0.7,1.3-1.7
			C85.1,122.1,84.7,121.1,83.8,121.1z"/>
	</g>
	<g>
		<path fill="#2D2C2C" d="M88.4,121.3c-0.1,0-0.1,0-0.2,0c-0.7,0-1,0.7-1,1.4v2.2h-0.6V122c0-0.4,0-0.8,0-1.2H87v0.8l0,0
			c0.2-0.5,0.6-0.9,1.1-0.9c0.1,0,0.1,0,0.2,0v0.6H88.4z"/>
	</g>
	<g>
		<path fill="#2D2C2C" d="M89.5,120c-0.2,0-0.4-0.2-0.4-0.4c0-0.2,0.2-0.4,0.4-0.4c0.2,0,0.4,0.2,0.4,0.4
			C89.9,119.9,89.8,120,89.5,120z M89.8,124.8h-0.6v-4.1h0.6V124.8z"/>
	</g>
	<g>
		<path fill="#2D2C2C" d="M91,120l0.6-0.2v1h1.1v0.5h-1.1v2.4c0,0.5,0.2,0.8,0.6,0.8c0.2,0,0.3,0,0.4-0.1v0.5
			c-0.1,0.1-0.3,0.1-0.6,0.1c-1,0-1-0.9-1-1.3v-2.3h-0.6v-0.5H91V120z"/>
	</g>
	<g>
		<path fill="#2D2C2C" d="M96,120.8l-1.1,2.9c-0.5,1.3-0.8,2.1-1.3,2.6c-0.3,0.3-0.7,0.4-0.8,0.5l-0.2-0.5c1-0.4,1.3-1.4,1.3-1.5
			c0,0,0-0.1,0-0.2l-1.4-3.8h0.7l0.9,2.5c0.1,0.3,0.2,0.6,0.3,0.9l0,0c0.1-0.2,0.2-0.6,0.3-0.9l0.8-2.5H96z"/>
	</g>
	<g>
		<path fill="#2D2C2C" d="M49.7,141.4l0.6-0.2v1h1.1v0.5h-1.1v2.4c0,0.5,0.2,0.8,0.6,0.8c0.2,0,0.3,0,0.4-0.1v0.5
			c-0.1,0.1-0.3,0.1-0.6,0.1c-1,0-1-0.9-1-1.3v-2.3h-0.6v-0.5h0.6V141.4z"/>
	</g>
	<g>
		<path fill="#2D2C2C" d="M53.6,142.7c-0.1,0-0.1,0-0.2,0c-0.7,0-1,0.7-1,1.4v2.2h-0.6v-2.9c0-0.4,0-0.8,0-1.2h0.5v0.8l0,0
			c0.2-0.5,0.6-0.9,1.1-0.9c0.1,0,0.1,0,0.2,0V142.7z"/>
	</g>
	<g>
		<path fill="#2D2C2C" d="M57.1,145.3c0,0.3,0,0.7,0.1,1h-0.6l-0.1-0.5l0,0c-0.2,0.3-0.6,0.6-1.2,0.6c-0.8,0-1.2-0.6-1.2-1.2
			c0-1,0.9-1.5,2.4-1.5c0-0.3,0-1.1-0.9-1.1c-0.4,0-0.7,0.1-1,0.3l-0.2-0.4c0.3-0.2,0.8-0.3,1.2-0.3c1.2,0,1.5,0.8,1.5,1.6V145.3z
			 M56.4,144.2c-0.8,0-1.7,0.1-1.7,1c0,0.5,0.3,0.8,0.7,0.8c0.6,0,1-0.5,1-1V144.2z"/>
	</g>
	<g>
		<path fill="#2D2C2C" d="M61.9,146.3h-0.6v-2.4c0-0.7-0.2-1.3-1-1.3c-0.5,0-1.1,0.4-1.1,1.2v2.5h-0.6v-3c0-0.4,0-0.7,0-1.1h0.6v0.7
			l0,0c0.2-0.4,0.7-0.8,1.3-0.8c0.5,0,1.4,0.3,1.4,1.7C61.9,143.8,61.9,146.3,61.9,146.3z"/>
	</g>
	<g>
		<path fill="#2D2C2C" d="M64.9,142.8c-0.2-0.1-0.4-0.2-0.8-0.2s-0.7,0.3-0.7,0.6c0,0.4,0.2,0.5,0.8,0.7c0.7,0.3,1,0.6,1,1.2
			c0,0.7-0.6,1.2-1.4,1.2c-0.4,0-0.8-0.1-1.1-0.3l0.2-0.5c0.2,0.1,0.6,0.3,0.9,0.3c0.5,0,0.8-0.3,0.8-0.7s-0.2-0.6-0.8-0.8
			c-0.7-0.3-1-0.7-1-1.2c0-0.6,0.5-1.2,1.3-1.2c0.4,0,0.7,0.1,0.9,0.2L64.9,142.8z"/>
	</g>
	<g>
		<path fill="#2D2C2C" d="M67.3,142.9c0.3-0.5,0.8-0.8,1.4-0.8c1,0,1.7,0.8,1.7,2.1c0,1.5-0.9,2.2-1.8,2.2c-0.5,0-1-0.2-1.2-0.7l0,0
			v2.2h-0.6v-4.4c0-0.5,0-0.9,0-1.3h0.6L67.3,142.9L67.3,142.9z M67.3,144.6c0,0.8,0.6,1.2,1.1,1.2c0.8,0,1.2-0.7,1.2-1.7
			c0-0.8-0.4-1.6-1.2-1.6c-0.7,0-1.2,0.7-1.2,1.3L67.3,144.6L67.3,144.6z"/>
	</g>
	<g>
		<path fill="#2D2C2C" d="M74.5,144.2c0,1.5-1,2.2-1.9,2.2c-1,0-1.9-0.8-1.9-2.1c0-1.4,0.9-2.2,1.9-2.2
			C73.7,142.1,74.5,142.9,74.5,144.2z M72.6,142.6c-0.9,0-1.3,0.9-1.3,1.7c0,0.9,0.5,1.6,1.2,1.6s1.3-0.7,1.3-1.7
			C73.8,143.5,73.5,142.6,72.6,142.6z"/>
	</g>
	<g>
		<path fill="#2D2C2C" d="M77.1,142.7c-0.1,0-0.1,0-0.2,0c-0.7,0-1,0.7-1,1.4v2.2h-0.6v-2.9c0-0.4,0-0.8,0-1.2h0.5v0.8l0,0
			c0.2-0.5,0.6-0.9,1.1-0.9c0.1,0,0.1,0,0.2,0V142.7z"/>
	</g>
	<g>
		<path fill="#2D2C2C" d="M78.1,141.4l0.6-0.2v1h1.1v0.5h-1.1v2.4c0,0.5,0.2,0.8,0.6,0.8c0.2,0,0.3,0,0.4-0.1v0.5
			c-0.1,0.1-0.3,0.1-0.6,0.1c-1,0-1-0.9-1-1.3v-2.3h-0.6v-0.5h0.6V141.4z"/>
	</g>
	<g>
		<path fill="#2D2C2C" d="M82.8,145.3c0,0.3,0,0.7,0.1,1h-0.6l-0.1-0.5l0,0c-0.2,0.3-0.6,0.6-1.2,0.6c-0.8,0-1.2-0.6-1.2-1.2
			c0-1,0.9-1.5,2.4-1.5c0-0.3,0-1.1-0.9-1.1c-0.4,0-0.7,0.1-1,0.3l-0.1-0.4c0.3-0.2,0.8-0.3,1.2-0.3c1.2,0,1.5,0.8,1.5,1.6v1.5
			L82.8,145.3L82.8,145.3z M82.2,144.2c-0.8,0-1.7,0.1-1.7,1c0,0.5,0.3,0.8,0.7,0.8c0.6,0,1-0.5,1-1V144.2z"/>
	</g>
	<g>
		<path fill="#2D2C2C" d="M84.6,141.4l0.6-0.2v1h1.1v0.5h-1.1v2.4c0,0.5,0.2,0.8,0.6,0.8c0.2,0,0.3,0,0.4-0.1v0.5
			c-0.1,0.1-0.3,0.1-0.6,0.1c-1,0-1-0.9-1-1.3v-2.3H84v-0.5h0.6V141.4z"/>
	</g>
	<g>
		<path fill="#2D2C2C" d="M86.8,141.5c-0.2,0-0.4-0.2-0.4-0.4s0.2-0.4,0.4-0.4c0.2,0,0.4,0.2,0.4,0.4
			C87.3,141.3,87.1,141.5,86.8,141.5z M87.2,146.3h-0.6v-4.1h0.6V146.3z"/>
	</g>
	<g>
		<path fill="#2D2C2C" d="M91.6,144.2c0,1.5-1,2.2-1.9,2.2c-1,0-1.9-0.8-1.9-2.1c0-1.4,0.9-2.2,1.9-2.2
			C90.9,142.1,91.6,142.9,91.6,144.2z M89.7,142.6c-0.9,0-1.3,0.9-1.3,1.7c0,0.9,0.5,1.6,1.2,1.6s1.3-0.7,1.3-1.7
			C91,143.5,90.6,142.6,89.7,142.6z"/>
	</g>
	<g>
		<path fill="#2D2C2C" d="M95.7,146.3h-0.6v-2.4c0-0.7-0.2-1.3-1-1.3c-0.5,0-1.1,0.4-1.1,1.2v2.5h-0.6v-3c0-0.4,0-0.7,0-1.1H93v0.7
			l0,0c0.2-0.4,0.7-0.8,1.3-0.8c0.5,0,1.4,0.3,1.4,1.7C95.7,143.8,95.7,146.3,95.7,146.3z"/>
	</g>
</g>
</svg>
