<?xml version="1.0" encoding="utf-8"?>
<!-- Generator: Adobe Illustrator 15.1.0, SVG Export Plug-In . SVG Version: 6.00 Build 0)  -->
<!DOCTYPE svg PUBLIC "-//W3C//DTD SVG 1.1//EN" "http://www.w3.org/Graphics/SVG/1.1/DTD/svg11.dtd">
<svg version="1.1" id="Layer_1" xmlns="http://www.w3.org/2000/svg" xmlns:xlink="http://www.w3.org/1999/xlink" x="0px" y="0px"
	 width="15px" height="15px" viewBox="0 0 15 15" enable-background="new 0 0 15 15" xml:space="preserve">
<g>
	<path fill="#FFFFFF" d="M2.361,9.266C2.162,8.711,2.036,8.123,2.036,7.5c0-3.013,2.451-5.464,5.464-5.464
		c0.678,0,1.32,0.137,1.916,0.37l1.277-1.278C9.73,0.641,8.652,0.349,7.5,0.349c-3.943,0-7.151,3.208-7.151,7.151
		c0,1.096,0.27,2.12,0.713,3.047l-1.087,1.072l4.12,0.77L3.379,8.261L2.361,9.266z"/>
	<path fill="#FFFFFF" d="M15.023,3.366l-4.119-0.77l0.716,4.128l1.016-1.001c0.202,0.558,0.328,1.15,0.328,1.778
		c0,3.015-2.45,5.464-5.464,5.464c-0.677,0-1.318-0.137-1.913-0.367l-1.278,1.277C5.272,14.359,6.35,14.65,7.5,14.65
		c3.943,0,7.15-3.207,7.15-7.15c0-1.099-0.271-2.128-0.719-3.057L15.023,3.366z"/>
</g>
</svg>
